<svg id="Capa_1" enable-background="new 0 0 512 512" height="512" viewBox="0 0 512 512" width="512" xmlns="http://www.w3.org/2000/svg"><g><path d="m512 233.376c0-15.93-12.96-28.889-28.89-28.889h-24.498c-10.503 0-19.765 5.419-25.137 13.607l-16.889-59.603c-7.645-26.979-32.568-45.821-60.609-45.821h-13.812c2.087-10.15 3.171-20.571 3.171-31.121v-38.685c0-4.122-2.777-7.757-6.749-8.84l-79.955-21.843c-1.56-.425-3.211-.429-4.782-.01l-12.552 3.363c-4.001 1.072-6.375 5.185-5.303 9.186 1.071 4.001 5.184 6.372 9.186 5.303l11.027-2.955 74.128 20.251v34.23c0 49.684-26.599 96.205-69.415 121.408l-4.73 2.785-5.229-3.019c-43.45-25.085-70.441-71.836-70.441-122.007v-33.368l29.943-8.023c4.001-1.072 6.375-5.185 5.303-9.186s-5.185-6.374-9.186-5.304l-34.271 9.183c-3.997 1.073-6.789 4.713-6.789 8.852v37.846c0 10.846 1.14 21.547 3.333 31.953h-12.831c-28.041 0-52.964 18.842-60.609 45.822l-16.889 59.602c-5.372-8.189-14.633-13.607-25.137-13.607h-24.498c-15.93 0-28.89 12.96-28.89 28.89s12.96 28.889 28.89 28.889h9.414c-8.85 9.022-14.316 21.375-14.316 34.981v92.241c-2.531 2.137-4.142 5.332-4.142 8.896v31.831c0 11.822 8.214 21.761 19.233 24.412v21.545c0 13.217 10.753 23.97 23.971 23.97h60.63c13.218 0 23.971-10.753 23.971-23.97v-20.851h216.697v20.851c0 13.217 10.753 23.97 23.97 23.97h60.631c13.218 0 23.971-10.753 23.971-23.97v-21.849c10.44-3.043 18.091-12.698 18.091-24.108v-31.831c0-3.564-1.611-6.759-4.142-8.896v-92.241c0-13.606-5.465-25.96-14.316-34.981h10.557c15.93 0 28.89-12.96 28.89-28.889zm-68.429 1.152c0-8.294 6.747-15.042 15.041-15.042h24.498c7.659 0 13.89 6.23 13.89 13.889s-6.23 13.889-13.89 13.889h-39.539zm-79.005 106.161v-1.343c0-20.694 16.844-37.466 37.465-37.466h8.406v38.809zm60.872-38.809h9.138c6.287 0 11.402 5.116 11.402 11.403v9.702c0 9.762-7.942 17.704-17.704 17.704h-2.836zm3.939-19.775-5.513 4.774h-21.833c-20.944 0-39.061 12.336-47.467 30.124h-20.622c-.192-4.708-4.081-8.48-8.836-8.48h-138.214c-4.754 0-8.644 3.772-8.836 8.48h-20.622c-8.406-17.788-26.523-30.124-47.467-30.124h-21.833l-5.513-4.774c-5.948-5.151-9.894-12.128-11.297-19.741.874-.066 1.756-.099 2.646-.099h362.918c1.273 0 2.53.069 3.768.202-1.419 7.573-5.357 14.511-11.279 19.638zm-110.426 42.066c0 20.225-16.455 36.68-36.681 36.68h-52.543c-20.226 0-36.68-16.455-36.68-36.68v-.647h125.903v.647zm-241.526-22.291h9.138v38.809h-2.836c-9.762 0-17.704-7.942-17.704-17.704v-9.702c-.001-6.288 5.115-11.403 11.402-11.403zm24.137 38.809v-38.809h8.404c21.105 0 38.189 17.541 37.442 38.809zm95.386-166.206-72.782 72.782h-12.332l22.064-77.869c2.791-9.848 11.889-16.726 22.125-16.726h27.172c3.975 7.63 8.576 14.928 13.753 21.813zm159.03-46.813c21.364 0 40.353 14.356 46.178 34.911l23.996 84.684h-10.394l-7.534-26.589c-1.13-3.986-5.272-6.301-9.261-5.171-3.985 1.129-6.3 5.275-5.171 9.26l6.376 22.5h-119.564l89.621-89.621c3.709 2.931 6.529 6.995 7.877 11.752l5.876 20.739c1.135 4.006 5.295 6.296 9.261 5.171 3.984-1.129 6.3-5.275 5.171-9.26l-5.876-20.739c-3-10.586-10.411-19.095-19.881-23.749-.201-.108-.407-.207-.615-.296-4.927-2.313-10.388-3.592-16.061-3.592h-21.176c1.275-3.289 2.441-6.625 3.493-10zm-104.459 92.696c2.904 1.678 6.529 1.687 9.464-.039 3.507-2.723 42.537-19.877 67.081-67.658h25.922l-94.595 94.595h-61.105l36.77-36.77c6.127 4.083 10.082 6.131 16.463 9.872zm-28.662-18.887-45.786 45.786h-31.691l61.192-61.192c5.03 5.496 10.468 10.649 16.285 15.406zm-113.012-38.898c5.825-20.555 24.813-34.911 46.178-34.911h16.782c1.072 3.377 2.256 6.712 3.551 10h-20.333c-16.912 0-31.945 11.364-36.557 27.637l-23.223 81.958h-10.394zm-94.845 70.795c0-7.659 6.23-13.889 13.89-13.889h24.498c8.294 0 15.041 6.748 15.041 15.042v12.737h-39.539c-7.66-.001-13.89-6.232-13.89-13.89zm19.847 196.838v-28.472h89.65c4.143 0 7.5-3.358 7.5-7.5s-3.357-7.5-7.5-7.5h-85.509v-89.496c0-13.095 7.233-24.533 17.913-30.528 1.777 8.1 5.574 15.642 11.062 21.914-9.899 3.812-16.941 13.424-16.941 24.651v9.702c0 18.033 14.671 32.704 32.704 32.704h69.671c4.982 0 9.035-4.053 9.035-9.035v-7.309c0-2.491-.175-4.942-.512-7.342h16.72c3.785 24.793 25.253 43.847 51.087 43.847h52.543c25.835 0 47.303-19.054 51.088-43.847h16.72c-.337 2.4-.512 4.851-.512 7.342v7.309c0 4.982 4.053 9.035 9.034 9.035h69.673c18.033 0 32.704-14.671 32.704-32.704v-9.702c0-11.227-7.043-20.839-16.943-24.651 5.356-6.119 9.1-13.448 10.93-21.324 10.125 6.136 16.904 17.26 16.904 29.939v89.496h-312.371c-4.143 0-7.5 3.358-7.5 7.5s3.357 7.5 7.5 7.5h16.102v38.578h-130.647c-5.572-.002-10.105-4.535-10.105-10.107zm286.553-28.472v38.578h-130.801v-38.578zm-188.749 74.429c0 4.946-4.024 8.97-8.971 8.97h-60.63c-4.946 0-8.971-4.024-8.971-8.97v-20.851h15.967v11.43c0 4.142 3.357 7.5 7.5 7.5s7.5-3.358 7.5-7.5v-11.43h16.638v11.43c0 4.142 3.357 7.5 7.5 7.5s7.5-3.358 7.5-7.5v-11.43h15.967zm316.298 8.97h-60.631c-4.946 0-8.97-4.024-8.97-8.97v-20.851h15.967v11.43c0 4.142 3.357 7.5 7.5 7.5s7.5-3.358 7.5-7.5v-11.43h16.637v11.43c0 4.142 3.357 7.5 7.5 7.5s7.5-3.358 7.5-7.5v-11.43h15.968v20.851c0 4.946-4.024 8.97-8.971 8.97zm27.062-54.927c0 5.572-4.534 10.105-10.106 10.105h-129.505v-38.578h139.61v28.473z"/><path d="m244.596 349.687h22.809c4.143 0 7.5-3.358 7.5-7.5s-3.357-7.5-7.5-7.5h-22.809c-4.143 0-7.5 3.358-7.5 7.5s3.357 7.5 7.5 7.5z"/><path d="m193.293 64.181v16.536c0 43.23 21.573 83.242 57.71 107.03 3.099 2.039 7.102 2.029 10.196-.066 35.294-23.892 56.365-63.568 56.365-106.133v-17.48c0-4.121-2.776-7.756-6.75-8.841l-52.248-14.273c-1.561-.427-3.215-.432-4.787-.012l-53.689 14.386c-4.002 1.07-6.797 4.711-6.797 8.853zm15 4.478 47.844-12.82 46.428 12.684v13.026c0 36.271-17.33 70.167-46.559 91.453-29.951-21.22-47.713-55.427-47.713-92.285z"/><path d="m256.093 157.83c4.143 0 7.5-3.358 7.5-7.5v-76.362c0-4.142-3.357-7.5-7.5-7.5s-7.5 3.358-7.5 7.5v76.362c0 4.142 3.357 7.5 7.5 7.5z"/></g></svg>