<svg id="Capa_1" enable-background="new 0 0 511.999 511.999" height="512" viewBox="0 0 511.999 511.999" width="512" xmlns="http://www.w3.org/2000/svg"><g><path d="m93.573 362.694h-15.535c-4.143 0-7.5 3.357-7.5 7.5s3.357 7.5 7.5 7.5h15.535c4.143 0 7.5-3.357 7.5-7.5s-3.357-7.5-7.5-7.5z"/><path d="m134.185 84.351c0 4.143 3.357 7.5 7.5 7.5h22.246c4.143 0 7.5-3.357 7.5-7.5s-3.357-7.5-7.5-7.5h-22.246c-4.143 0-7.5 3.357-7.5 7.5z"/><path d="m282.658 91.851c4.143 0 7.5-3.357 7.5-7.5s-3.357-7.5-7.5-7.5h-92.246c-4.143 0-7.5 3.357-7.5 7.5s3.357 7.5 7.5 7.5z"/><path d="m503.103 212.781-9.236-5.554c-.483-.29-.889-.702-1.172-1.193l-20.458-35.435c-.284-.492-.439-1.05-.449-1.616l-.19-10.773c-.111-6.399-3.625-12.364-9.171-15.567l-18.167-10.488c-5.542-3.201-12.466-3.262-18.066-.16l-1.849 1.024v-16.962c0-14.552-11.838-26.39-26.39-26.39h-69.71v-37.74c0-11.93-9.705-21.635-21.635-21.635h-143.257c-4.143 0-7.5 3.357-7.5 7.5s3.357 7.5 7.5 7.5h143.257c3.658 0 6.635 2.977 6.635 6.635v64.851c0 3.658-2.977 6.635-6.635 6.635h-188.876c-3.658 0-6.635-2.977-6.635-6.635v-64.852c0-3.658 2.977-6.635 6.635-6.635h15.632c4.143 0 7.5-3.357 7.5-7.5s-3.357-7.5-7.5-7.5h-15.632c-11.93 0-21.635 9.705-21.635 21.635v37.74h-69.709c-14.552.001-26.39 11.838-26.39 26.39v358.151c0 4.143 3.357 7.5 7.5 7.5h409.344c4.143 0 7.5-3.357 7.5-7.5v-129.235l1.848 1.023c5.599 3.103 12.521 3.042 18.067-.158l18.167-10.489c5.545-3.201 9.059-9.166 9.171-15.565l.19-10.775c.01-.565.165-1.123.448-1.614l20.46-35.438c.282-.489.688-.901 1.174-1.193l9.235-5.552c5.486-3.298 8.895-9.323 8.895-15.726v-20.978c0-6.404-3.409-12.429-8.896-15.726zm-488.103-96.725c0-6.28 5.109-11.39 11.39-11.39h69.71v12.11c0 11.93 9.705 21.635 21.635 21.635h188.875c11.93 0 21.635-9.705 21.635-21.635v-12.11h69.71c6.28 0 11.39 5.109 11.39 11.39v21.58h-35.118c-.565 0-1.126-.145-1.622-.42l-9.427-5.224c-5.604-3.103-12.524-3.041-18.065.161l-18.167 10.488c-5.544 3.201-9.059 9.166-9.172 15.566l-.189 10.771c-.01.568-.165 1.128-.448 1.618l-5.287 9.157c-8.498 0-256.082 0-273.444 0-4.143 0-7.5 3.357-7.5 7.5v279.452h-15.906zm271.265 149.153 9.237 5.553c.484.291.891.704 1.174 1.194l20.46 35.438c.282.489.438 1.049.447 1.613l.189 10.775c.113 6.401 3.628 12.366 9.172 15.565l2.142 1.236v35.281h-47.022v-64.689c0-4.143-3.357-7.5-7.5-7.5h-28.593v-30.681c0-4.143-3.357-7.5-7.5-7.5s-7.5 3.357-7.5 7.5v30.681h-10.371c-4.143 0-7.5 3.357-7.5 7.5v159.531h-18.104v-271.951h108.193l-6.511 11.277c-.284.491-.69.904-1.176 1.196l-9.235 5.552c-5.487 3.298-8.896 9.323-8.896 15.726v20.978c-.001 6.401 3.407 12.427 8.894 15.725zm-240.361 201.499v-128.477h83.027v49.245c0 4.143 3.357 7.5 7.5 7.5s7.5-3.357 7.5-7.5v-56.745c0-4.143-3.357-7.5-7.5-7.5h-4.288v-24.073c0-12.702-10.334-23.036-23.035-23.036-2.825 0-5.532.514-8.035 1.449v-11.836c0-12.701-10.334-23.035-23.035-23.035-12.702 0-23.036 10.334-23.036 23.035v57.497h-9.098v-128.477h134.091v271.952h-36.063v-49.245c0-4.143-3.357-7.5-7.5-7.5s-7.5 3.357-7.5 7.5v49.245h-83.028zm71.24-143.477h-16.07v-24.073c0-4.431 3.604-8.036 8.035-8.036s8.035 3.605 8.035 8.036zm-31.071 0h-16.071v-57.497c0-4.431 3.604-8.035 8.036-8.035 4.431 0 8.035 3.604 8.035 8.035zm142.027-8.555h38.964v152.031h-38.964zm53.963 152.032v-79.842h47.022v79.842zm62.023 0v-121.462l1.025.592c2.82 1.629 5.997 2.444 9.176 2.444 3.069 0 6.14-.761 8.891-2.285l9.427-5.224c.495-.274 1.056-.419 1.621-.419h35.118v126.354zm152.913-217.224c0 1.168-.622 2.269-1.623 2.87l-9.232 5.55c-2.662 1.599-4.889 3.865-6.439 6.553l-20.458 35.436c-1.553 2.688-2.402 5.749-2.457 8.851l-.19 10.776c-.021 1.167-.661 2.255-1.673 2.839l-18.166 10.488c-1.011.584-2.275.596-3.298.029l-9.426-5.223c-2.715-1.504-5.79-2.299-8.893-2.299h-40.918c-3.104 0-6.179.795-8.892 2.299l-9.426 5.223c-1.021.565-2.285.555-3.297-.028l-18.168-10.49c-1.012-.583-1.652-1.672-1.673-2.839l-.189-10.778c-.057-3.103-.905-6.162-2.456-8.847l-20.46-35.438c-1.552-2.688-3.777-4.952-6.436-6.55l-9.235-5.552c-1.002-.602-1.624-1.702-1.624-2.87v-20.978c0-1.168.622-2.268 1.623-2.869l9.235-5.552c2.659-1.599 4.885-3.863 6.438-6.552l20.459-35.437c1.551-2.686 2.399-5.744 2.456-8.85l.189-10.774c.021-1.168.662-2.257 1.674-2.841l18.168-10.489c.515-.297 1.094-.445 1.674-.445.56 0 1.12.139 1.622.417l9.425 5.222c2.714 1.505 5.789 2.3 8.893 2.3h40.918c3.103 0 6.178-.795 8.893-2.299l9.426-5.223c1.021-.567 2.284-.556 3.297.029l18.166 10.487c1.012.585 1.653 1.673 1.674 2.842l.19 10.774c.055 3.101.903 6.161 2.456 8.851l20.458 35.434c1.552 2.689 3.778 4.956 6.438 6.553l9.235 5.553s.001.001.002.001c1 .601 1.621 1.7 1.621 2.868v20.978z"/><path d="m394.685 169.511c-38.313 0-69.483 31.171-69.483 69.484s31.17 69.483 69.483 69.483c16.884 0 33.169-6.144 45.855-17.3 3.111-2.734 3.415-7.474.68-10.584-2.735-3.112-7.476-3.416-10.584-.68-9.947 8.746-22.715 13.563-35.951 13.563-30.042 0-54.483-24.441-54.483-54.483 0-30.043 24.441-54.484 54.483-54.484 30.043 0 54.484 24.441 54.484 54.484 0 6.611-1.181 13.089-3.51 19.252-1.464 3.875.49 8.203 4.364 9.667 3.876 1.467 8.203-.489 9.667-4.364 2.972-7.864 4.479-16.126 4.479-24.555 0-38.312-31.171-69.483-69.484-69.483z"/></g></svg>