<svg id="Capa_1" enable-background="new 0 0 512.12 512.12" height="512" viewBox="0 0 512.12 512.12" width="512" xmlns="http://www.w3.org/2000/svg"><g><path d="m256.06 0-225.998 64.269v221.853c0 60.366 23.508 117.12 66.193 159.805 42.685 42.686 99.438 66.193 159.805 66.193s117.12-23.508 159.805-66.193c42.686-42.685 66.193-99.438 66.193-159.805v-221.853zm195.998 286.122c0 108.074-87.924 195.998-195.998 195.998s-195.998-87.924-195.998-195.998v-199.195l195.998-55.738 195.998 55.738z"/><path d="m90.062 109.585v176.537c0 91.532 74.466 165.998 165.998 165.998s165.998-74.466 165.998-165.998v-176.537l-165.998-47.206zm301.996 176.537c0 74.99-61.008 135.998-135.998 135.998s-135.998-61.008-135.998-135.998v-153.878l135.998-38.676 135.998 38.675z"/><path d="m241.06 151.551v31.494c-9.832 1.976-18.981 5.858-27.05 11.24l-22.294-22.294-21.213 21.213 22.294 22.294c-5.381 8.069-9.263 17.218-11.24 27.05h-31.494v30h31.494c1.976 9.832 5.858 18.981 11.24 27.05l-22.294 22.294 21.213 21.213 22.294-22.294c8.069 5.381 17.218 9.263 27.05 11.24v31.494h30v-31.494c9.832-1.976 18.981-5.858 27.05-11.24l22.294 22.294 21.213-21.213-22.294-22.294c5.381-8.069 9.263-17.218 11.24-27.05h31.494v-30h-31.494c-1.976-9.832-5.858-18.981-11.24-27.05l22.294-22.294-21.213-21.213-22.294 22.294c-8.069-5.381-17.218-9.263-27.05-11.24v-31.494zm60.996 105.996c0 25.362-20.634 45.996-45.996 45.996s-45.996-20.634-45.996-45.996 20.634-45.996 45.996-45.996 45.996 20.634 45.996 45.996z"/></g></svg>