<svg xmlns="http://www.w3.org/2000/svg" xmlns:xlink="http://www.w3.org/1999/xlink" viewBox="0 0 215.37 186.1"><defs><style>.cls-1{fill:url(#linear-gradient);}.cls-2{fill:url(#linear-gradient-2);}.cls-3{fill:#0093d4;}.cls-4{fill:#2b3990;}</style><linearGradient id="linear-gradient" x1="108.13" y1="1.67" x2="105.14" y2="112.43" gradientUnits="userSpaceOnUse"><stop offset="0" stop-color="#0093d4"/><stop offset="1" stop-color="#2b3990"/></linearGradient><linearGradient id="linear-gradient-2" x1="109.69" y1="1.72" x2="106.7" y2="112.47" xlink:href="#linear-gradient"/></defs><g id="HQ"><circle class="cls-1" cx="107.69" cy="18.04" r="10.28"/><path class="cls-2" d="M131.52,17.77A5,5,0,0,0,127.73,27a52.75,52.75,0,0,1,22.45,80.18L112.08,37a5,5,0,0,0-8.78,0L65.19,107.18A52.75,52.75,0,0,1,87.64,27a5,5,0,0,0-3.79-9.23A62.7,62.7,0,0,0,62.12,119a4.07,4.07,0,0,0,.8.86,62.78,62.78,0,1,0,68.6-102.08ZM97.89,122.92a1.2,1.2,0,1,1,0-2.39,1.2,1.2,0,0,1,0,2.39Zm33.68-11.72a1.2,1.2,0,1,1,1.2-1.2A1.19,1.19,0,0,1,131.57,111.2Zm1.5,11V113.9a4.2,4.2,0,1,0-3,0v9.78a54,54,0,0,1-6.33,2.49v-7.09a1.54,1.54,0,0,0-.4-1l-8.34-9V79.8a4.2,4.2,0,1,0-3,0v29.84a1.53,1.53,0,0,0,.39,1l8.35,9V127a52.66,52.66,0,0,1-5.75,1.14v-4.66a1.47,1.47,0,0,0-.45-1.07L99.71,107.81a4.13,4.13,0,0,0,.42-1.79A4.19,4.19,0,1,0,96,110.21a4.05,4.05,0,0,0,1.6-.33L112,124.13v4.36c-1.43.12-2.88.19-4.33.19a52.94,52.94,0,0,1-8.31-.67v-2.39a4.19,4.19,0,1,0-3,0v1.83a52.67,52.67,0,0,1-11.78-4.1V113L96.18,91.62a3.82,3.82,0,0,0,.9.11,4.19,4.19,0,1,0-4.19-4.19A4.14,4.14,0,0,0,93.68,90L81.79,111.9a1.44,1.44,0,0,0-.18.71v9.16A53.42,53.42,0,0,1,72.29,115l35.4-65.2,35.4,65.2A53.13,53.13,0,0,1,133.07,122.16ZM114.71,75.89a1.2,1.2,0,1,1-1.2-1.19A1.2,1.2,0,0,1,114.71,75.89ZM97.14,106a1.2,1.2,0,1,1-1.19-1.2A1.19,1.19,0,0,1,97.14,106ZM95.88,87.54a1.2,1.2,0,1,1,1.2,1.2A1.2,1.2,0,0,1,95.88,87.54Z"/><path class="cls-3" d="M109,175.89a.43.43,0,0,1-.18-.15.38.38,0,0,1-.07-.21.4.4,0,0,1,.1-.26.36.36,0,0,1,.26-.11.47.47,0,0,1,.17,0,4.24,4.24,0,0,0,1.74.37c1,0,1.54-.34,1.54-1a.59.59,0,0,0-.2-.44,1.46,1.46,0,0,0-.49-.28l-.83-.24a11.12,11.12,0,0,1-1.15-.35,2.1,2.1,0,0,1-.76-.52,1.3,1.3,0,0,1-.31-.92,1.63,1.63,0,0,1,.26-.91,1.87,1.87,0,0,1,.78-.65,2.89,2.89,0,0,1,1.24-.24,5.1,5.1,0,0,1,1.75.29.35.35,0,0,1,.25.35.42.42,0,0,1-.1.26.35.35,0,0,1-.26.11l-.14,0a4.28,4.28,0,0,0-1.42-.24A2.22,2.22,0,0,0,110,171a.83.83,0,0,0-.43.74.72.72,0,0,0,.2.52,1.56,1.56,0,0,0,.52.31,8.62,8.62,0,0,0,.85.23,9.05,9.05,0,0,1,1.13.33,2.08,2.08,0,0,1,.73.52,1.6,1.6,0,0,1,0,1.84,1.81,1.81,0,0,1-.79.61,2.92,2.92,0,0,1-1.18.22A5.25,5.25,0,0,1,109,175.89Z"/><path class="cls-3" d="M115.17,176a2,2,0,0,1-.79-.82,2.55,2.55,0,0,1-.28-1.22,2.53,2.53,0,0,1,.28-1.22,1.9,1.9,0,0,1,.79-.82,2.57,2.57,0,0,1,2.37,0,2,2,0,0,1,.79.82,2.53,2.53,0,0,1,.28,1.22,2.55,2.55,0,0,1-.28,1.22,2,2,0,0,1-.79.82,2.57,2.57,0,0,1-2.37,0Zm1.88-.61a1.28,1.28,0,0,0,.54-.52,2,2,0,0,0,0-1.83,1.28,1.28,0,0,0-.54-.52,1.59,1.59,0,0,0-1.39,0,1.36,1.36,0,0,0-.55.52,2.1,2.1,0,0,0,0,1.83,1.36,1.36,0,0,0,.55.52,1.51,1.51,0,0,0,1.39,0Z"/><path class="cls-3" d="M119.84,176.15a.39.39,0,0,1-.11-.28v-5.71a.44.44,0,0,1,.11-.29.38.38,0,0,1,.29-.12.39.39,0,0,1,.4.41v5.71a.36.36,0,0,1-.12.28.38.38,0,0,1-.28.12A.38.38,0,0,1,119.84,176.15Z"/><path class="cls-3" d="M123.23,176.18a.58.58,0,0,1-.2-.24l-1.53-3.66a.46.46,0,0,1,0-.19.37.37,0,0,1,.11-.28.38.38,0,0,1,.28-.12.36.36,0,0,1,.22.07.36.36,0,0,1,.14.16l1.35,3.41,1.35-3.41a.36.36,0,0,1,.14-.16.36.36,0,0,1,.22-.07.38.38,0,0,1,.28.12.37.37,0,0,1,.11.28.46.46,0,0,1,0,.19l-1.53,3.66a.58.58,0,0,1-.2.24.48.48,0,0,1-.29.09h-.08A.48.48,0,0,1,123.23,176.18Z"/><path class="cls-3" d="M126.65,170.69a.44.44,0,0,1-.13-.32v0a.4.4,0,0,1,.13-.31.43.43,0,0,1,.32-.14h0a.45.45,0,0,1,.32.14.4.4,0,0,1,.13.31v0a.44.44,0,0,1-.13.32.48.48,0,0,1-.32.13h0A.46.46,0,0,1,126.65,170.69Zm0,5.46a.39.39,0,0,1-.11-.28v-3.78a.41.41,0,0,1,.11-.28.38.38,0,0,1,.29-.12.38.38,0,0,1,.4.4v3.78a.36.36,0,0,1-.12.28.38.38,0,0,1-.28.12A.38.38,0,0,1,126.7,176.15Z"/><path class="cls-3" d="M128.9,176.15a.36.36,0,0,1-.12-.28v-3.78a.38.38,0,0,1,.12-.28.36.36,0,0,1,.28-.12.41.41,0,0,1,.4.4v.37a2.83,2.83,0,0,1,.73-.59,1.75,1.75,0,0,1,.91-.22,1.55,1.55,0,0,1,.84.22,1.6,1.6,0,0,1,.55.63,2.06,2.06,0,0,1,.19.87v2.5a.36.36,0,0,1-.12.28.4.4,0,0,1-.29.12.38.38,0,0,1-.28-.12.36.36,0,0,1-.11-.28v-2.41c0-.72-.33-1.08-1-1.08a1.41,1.41,0,0,0-.79.23,3.17,3.17,0,0,0-.66.62v2.64a.36.36,0,0,1-.12.28.38.38,0,0,1-.28.12A.36.36,0,0,1,128.9,176.15Z"/><path class="cls-3" d="M135.21,178.21a3.28,3.28,0,0,1-.85-.33.33.33,0,0,1-.16-.31.35.35,0,0,1,.1-.25.34.34,0,0,1,.41-.07,3.22,3.22,0,0,0,1.45.33c.9,0,1.35-.48,1.35-1.43v-.59a2,2,0,0,1-1.51.66,2.08,2.08,0,0,1-1-.26,2.1,2.1,0,0,1-.8-.77,2.62,2.62,0,0,1,0-2.51,2.21,2.21,0,0,1,.8-.78,2.19,2.19,0,0,1,1-.25,2,2,0,0,1,1.51.66v-.22a.41.41,0,0,1,.11-.28.38.38,0,0,1,.29-.12.41.41,0,0,1,.4.4V176a2.47,2.47,0,0,1-.54,1.71,2,2,0,0,1-1.53.6A4.61,4.61,0,0,1,135.21,178.21Zm1.69-2.89a2.68,2.68,0,0,0,.61-.48V173a2.68,2.68,0,0,0-.61-.48,1.43,1.43,0,0,0-.73-.17,1.49,1.49,0,0,0-1.08.4,1.8,1.8,0,0,0,0,2.31,1.49,1.49,0,0,0,1.08.4A1.54,1.54,0,0,0,136.9,175.32Z"/><path class="cls-3" d="M142.11,178.17a.36.36,0,0,1-.12-.28v-5.8a.38.38,0,0,1,.12-.29.39.39,0,0,1,.28-.11.41.41,0,0,1,.28.11.38.38,0,0,1,.12.29v.22a2,2,0,0,1,1.51-.66,2.09,2.09,0,0,1,1,.27,2.22,2.22,0,0,1,.8.81,2.51,2.51,0,0,1,.3,1.25,2.47,2.47,0,0,1-.3,1.24,2.18,2.18,0,0,1-.8.82,2.09,2.09,0,0,1-1,.27,2,2,0,0,1-1.51-.67v2.25a.42.42,0,0,1-.11.29.38.38,0,0,1-.29.11A.36.36,0,0,1,142.11,178.17Zm3.12-3a1.61,1.61,0,0,0,.4-1.17,1.58,1.58,0,0,0-.4-1.17,1.36,1.36,0,0,0-1-.42,1.67,1.67,0,0,0-.76.18,2.11,2.11,0,0,0-.63.48v1.85a2.11,2.11,0,0,0,.63.48,1.67,1.67,0,0,0,.76.18A1.36,1.36,0,0,0,145.23,175.15Z"/><path class="cls-3" d="M147.66,176.15a.39.39,0,0,1-.11-.28v-3.78a.41.41,0,0,1,.11-.28.38.38,0,0,1,.28-.12.38.38,0,0,1,.29.12.38.38,0,0,1,.12.28v.38a1.73,1.73,0,0,1,1.38-.82h.05a.33.33,0,0,1,.27.11.37.37,0,0,1,.11.28.33.33,0,0,1-.11.27.42.42,0,0,1-.29.11h0a1.46,1.46,0,0,0-.77.21,1.69,1.69,0,0,0-.59.57v2.67a.36.36,0,0,1-.12.28.38.38,0,0,1-.29.12A.38.38,0,0,1,147.66,176.15Z"/><path class="cls-3" d="M151.58,176a2,2,0,0,1-.79-.82,2.67,2.67,0,0,1-.27-1.22,2.64,2.64,0,0,1,.27-1.22,2,2,0,0,1,.79-.82,2.31,2.31,0,0,1,1.19-.29,2.27,2.27,0,0,1,1.18.29,1.9,1.9,0,0,1,.79.82A2.53,2.53,0,0,1,155,174a2.55,2.55,0,0,1-.28,1.22,2,2,0,0,1-.79.82,2.27,2.27,0,0,1-1.18.29A2.31,2.31,0,0,1,151.58,176Zm1.88-.61a1.36,1.36,0,0,0,.55-.52,2.1,2.1,0,0,0,0-1.83,1.36,1.36,0,0,0-.55-.52,1.59,1.59,0,0,0-1.39,0,1.28,1.28,0,0,0-.54.52,2.1,2.1,0,0,0,0,1.83,1.28,1.28,0,0,0,.54.52,1.51,1.51,0,0,0,1.39,0Z"/><path class="cls-3" d="M156.94,175.64v.23a.36.36,0,0,1-.11.28.4.4,0,0,1-.29.12.41.41,0,0,1-.4-.4v-5.71a.4.4,0,0,1,.12-.29.36.36,0,0,1,.28-.12.38.38,0,0,1,.29.12.36.36,0,0,1,.11.29v2.15a2.06,2.06,0,0,1,1.51-.66,2.15,2.15,0,0,1,1,.27,2.2,2.2,0,0,1,.79.81,2.51,2.51,0,0,1,.3,1.25,2.47,2.47,0,0,1-.3,1.24,2,2,0,0,1-1.83,1.09A2,2,0,0,1,156.94,175.64Zm2.44-.49a1.61,1.61,0,0,0,.4-1.17,1.58,1.58,0,0,0-.4-1.17,1.36,1.36,0,0,0-1-.42,1.71,1.71,0,0,0-.77.18,2.4,2.4,0,0,0-.63.48v1.85a2.4,2.4,0,0,0,.63.48,1.71,1.71,0,0,0,.77.18A1.35,1.35,0,0,0,159.38,175.15Z"/><path class="cls-3" d="M161.81,176.15a.39.39,0,0,1-.11-.28v-5.71a.44.44,0,0,1,.11-.29.4.4,0,0,1,.69.29v5.71a.36.36,0,0,1-.12.28.38.38,0,0,1-.28.12A.4.4,0,0,1,161.81,176.15Z"/><path class="cls-3" d="M164.22,175.7a2.35,2.35,0,0,1-.6-1.72,2.88,2.88,0,0,1,.23-1.15,2,2,0,0,1,.7-.86,2,2,0,0,1,1.17-.32,2.07,2.07,0,0,1,1.13.3,1.88,1.88,0,0,1,.72.81,2.4,2.4,0,0,1,.25,1.1.42.42,0,0,1-.11.29.4.4,0,0,1-.29.11h-3a1.46,1.46,0,0,0,.46,1,1.57,1.57,0,0,0,1.08.34,2.54,2.54,0,0,0,.65-.07,2.37,2.37,0,0,0,.54-.2.41.41,0,0,1,.16,0,.4.4,0,0,1,.25.09.33.33,0,0,1,.1.25.39.39,0,0,1-.23.33,4,4,0,0,1-.68.29,3.38,3.38,0,0,1-.86.09A2.25,2.25,0,0,1,164.22,175.7Zm2.81-2.09a1.34,1.34,0,0,0-.23-.72,1.12,1.12,0,0,0-.49-.43,1.38,1.38,0,0,0-.59-.14,1.45,1.45,0,0,0-.59.14,1.16,1.16,0,0,0-.48.43,1.43,1.43,0,0,0-.22.72Z"/><path class="cls-3" d="M169,176.15a.39.39,0,0,1-.11-.28v-3.78a.41.41,0,0,1,.11-.28.38.38,0,0,1,.28-.12.38.38,0,0,1,.29.12.38.38,0,0,1,.12.28v.37a2.21,2.21,0,0,1,.59-.59,1.68,1.68,0,0,1,.91-.22,1.33,1.33,0,0,1,.84.26,1.46,1.46,0,0,1,.5.64,1.79,1.79,0,0,1,1.62-.9,1.38,1.38,0,0,1,.83.24,1.55,1.55,0,0,1,.49.64,2.16,2.16,0,0,1,.15.81v2.53a.39.39,0,0,1-.11.28.4.4,0,0,1-.29.12.41.41,0,0,1-.4-.4v-2.38a1.37,1.37,0,0,0-.2-.84.82.82,0,0,0-.7-.27,1.15,1.15,0,0,0-.74.24,2.1,2.1,0,0,0-.52.61v2.64a.36.36,0,0,1-.12.28.4.4,0,0,1-.29.12.38.38,0,0,1-.28-.12.36.36,0,0,1-.11-.28v-2.38a1.37,1.37,0,0,0-.21-.84.8.8,0,0,0-.69-.27,1.16,1.16,0,0,0-.75.24,2.26,2.26,0,0,0-.52.61v2.64a.36.36,0,0,1-.12.28.38.38,0,0,1-.29.12A.38.38,0,0,1,169,176.15Z"/><path class="cls-3" d="M176.81,175.92a.34.34,0,0,1-.15-.29.33.33,0,0,1,.1-.25.33.33,0,0,1,.25-.11.42.42,0,0,1,.15,0,3.18,3.18,0,0,0,.57.19,2.48,2.48,0,0,0,.63.07c.65,0,1-.21,1-.62a.34.34,0,0,0-.23-.31,4.37,4.37,0,0,0-.73-.24,7.91,7.91,0,0,1-.86-.25,1.59,1.59,0,0,1-.58-.4,1,1,0,0,1-.24-.71,1.3,1.3,0,0,1,.44-1,1.87,1.87,0,0,1,1.27-.38,3.59,3.59,0,0,1,1.28.22.29.29,0,0,1,.19.13.31.31,0,0,1,.07.2.39.39,0,0,1-.1.25.35.35,0,0,1-.26.1.28.28,0,0,1-.11,0,3.52,3.52,0,0,0-1-.15,1.35,1.35,0,0,0-.75.17.5.5,0,0,0-.27.44.41.41,0,0,0,.25.39,3.74,3.74,0,0,0,.77.24,7.2,7.2,0,0,1,.84.26,1.32,1.32,0,0,1,.56.4,1,1,0,0,1,.23.73,1.13,1.13,0,0,1-.44.93,1.91,1.91,0,0,1-1.26.37A3.32,3.32,0,0,1,176.81,175.92Z"/><path class="cls-3" d="M184.5,176.16a.53.53,0,0,1-.19-.26l-1.25-3.66a.49.49,0,0,1,0-.15.38.38,0,0,1,.4-.4.36.36,0,0,1,.22.07.33.33,0,0,1,.14.17l1,3.39,1-3.31a.42.42,0,0,1,.16-.23.45.45,0,0,1,.54,0,.42.42,0,0,1,.16.23l1,3.31,1-3.39a.33.33,0,0,1,.14-.17.36.36,0,0,1,.22-.07.38.38,0,0,1,.4.4.49.49,0,0,1,0,.15l-1.25,3.66a.53.53,0,0,1-.19.26.52.52,0,0,1-.32.11.51.51,0,0,1-.31-.11.56.56,0,0,1-.21-.27l-.93-2.92-.93,2.92a.56.56,0,0,1-.21.27.51.51,0,0,1-.31.11A.52.52,0,0,1,184.5,176.16Z"/><path class="cls-3" d="M190.51,170.69a.48.48,0,0,1-.13-.32v0a.44.44,0,0,1,.13-.31.45.45,0,0,1,.32-.14h0a.43.43,0,0,1,.32.14.4.4,0,0,1,.13.31v0a.44.44,0,0,1-.13.32.46.46,0,0,1-.32.13h0A.48.48,0,0,1,190.51,170.69Zm.06,5.46a.36.36,0,0,1-.12-.28v-3.78a.38.38,0,0,1,.12-.28.36.36,0,0,1,.28-.12.42.42,0,0,1,.29.11.39.39,0,0,1,.11.29v3.78a.36.36,0,0,1-.11.28.4.4,0,0,1-.29.12A.36.36,0,0,1,190.57,176.15Z"/><path class="cls-3" d="M192.91,175.15v-2.73h-.63a.16.16,0,0,1-.11,0,.13.13,0,0,1,0-.12.17.17,0,0,1,.08-.15l1.19-1.17a.28.28,0,0,1,.15-.08.14.14,0,0,1,.12.06.13.13,0,0,1,.05.12v.7h1a.33.33,0,0,1,.24.1.32.32,0,0,1,.1.25.33.33,0,0,1-.1.24.3.3,0,0,1-.24.1h-1v2.66a.5.5,0,0,0,.16.44.86.86,0,0,0,.41.09,1.49,1.49,0,0,0,.36-.05l.07,0h.1a.31.31,0,0,1,.22.09.29.29,0,0,1,.1.23.33.33,0,0,1-.2.3,1.69,1.69,0,0,1-.73.16C193.34,176.31,192.91,175.93,192.91,175.15Z"/><path class="cls-3" d="M196.12,176.15a.39.39,0,0,1-.11-.28v-5.71a.44.44,0,0,1,.11-.29.38.38,0,0,1,.29-.12.38.38,0,0,1,.28.12.4.4,0,0,1,.12.29v2.3a2.63,2.63,0,0,1,.72-.59,1.82,1.82,0,0,1,.92-.22,1.55,1.55,0,0,1,.84.22,1.6,1.6,0,0,1,.55.63,2.06,2.06,0,0,1,.19.87v2.5a.36.36,0,0,1-.12.28.4.4,0,0,1-.29.12.38.38,0,0,1-.28-.12.36.36,0,0,1-.12-.28v-2.41q0-1.08-1-1.08a1.41,1.41,0,0,0-.79.23,3.17,3.17,0,0,0-.66.62v2.64a.36.36,0,0,1-.12.28.38.38,0,0,1-.28.12A.38.38,0,0,1,196.12,176.15Z"/><path class="cls-3" d="M203.52,176.15a.36.36,0,0,1-.11-.28.45.45,0,0,1,0-.17l2.25-5.31a.63.63,0,0,1,.2-.26.5.5,0,0,1,.31-.1h.09a.55.55,0,0,1,.31.1.86.86,0,0,1,.2.26l2.24,5.31a.51.51,0,0,1,0,.17.39.39,0,0,1-.11.28.38.38,0,0,1-.29.12.34.34,0,0,1-.22-.07.4.4,0,0,1-.16-.18l-.57-1.37h-3l-.57,1.37a.34.34,0,0,1-.15.18.37.37,0,0,1-.23.07A.36.36,0,0,1,203.52,176.15Zm1.54-2.23h2.38l-1.19-2.87Z"/><path class="cls-3" d="M210.51,176.15a.36.36,0,0,1-.12-.28v-5.43a.4.4,0,0,1,.12-.29.36.36,0,0,1,.28-.12.38.38,0,0,1,.28.12.4.4,0,0,1,.12.29v5.43a.36.36,0,0,1-.12.28.38.38,0,0,1-.28.12A.36.36,0,0,1,210.51,176.15Z"/><path class="cls-4" d="M20.76,161.71a5.33,5.33,0,0,1-.23,1.6,5,5,0,0,1-.59,1.25,3.88,3.88,0,0,1-.87.93,5.53,5.53,0,0,1-1,.62,4.57,4.57,0,0,1-1.08.36,5,5,0,0,1-1,.12H4.32v-3h11.6a1.76,1.76,0,0,0,1.35-.51,1.9,1.9,0,0,0,.48-1.36,2.11,2.11,0,0,0-.13-.77,1.81,1.81,0,0,0-.36-.6,1.56,1.56,0,0,0-.58-.39,2.06,2.06,0,0,0-.76-.14H9a5.47,5.47,0,0,1-1.57-.26,4.55,4.55,0,0,1-2.77-2.36,5.68,5.68,0,0,1,0-4.57,4.71,4.71,0,0,1,1.2-1.52,4.6,4.6,0,0,1,1.57-.84A5.47,5.47,0,0,1,9,150H19.24v3H9a1.7,1.7,0,0,0-1.33.52,1.92,1.92,0,0,0-.48,1.37,1.89,1.89,0,0,0,.48,1.37,1.73,1.73,0,0,0,1.33.51h6.94a5.48,5.48,0,0,1,1,.13,5,5,0,0,1,1.09.38,5.26,5.26,0,0,1,1,.64,4.5,4.5,0,0,1,.86.93,4.67,4.67,0,0,1,.6,1.25A5.57,5.57,0,0,1,20.76,161.71Z"/><path class="cls-4" d="M36.52,162.37a4.63,4.63,0,0,1-.19,1.39,4.23,4.23,0,0,1-.52,1.09,3.82,3.82,0,0,1-.75.8,4.61,4.61,0,0,1-.9.53,4.79,4.79,0,0,1-.95.31,4.22,4.22,0,0,1-.91.1H26.88a4.7,4.7,0,0,1-1.37-.22,4,4,0,0,1-2.84-4v-4.08a4.2,4.2,0,0,1,.42-2,4,4,0,0,1,2.42-2,5.06,5.06,0,0,1,1.37-.22H32.3a4.25,4.25,0,0,1,2,.42,4,4,0,0,1,1.31,1.05,4.1,4.1,0,0,1,.72,1.37,4.7,4.7,0,0,1,.22,1.37Zm-3-4.05a1.09,1.09,0,0,0-1.22-1.23H26.9a1.21,1.21,0,0,0-.91.31,1.18,1.18,0,0,0-.32.89v4.08a1.1,1.1,0,0,0,1.23,1.21h5.4a1.22,1.22,0,0,0,.92-.31,1.25,1.25,0,0,0,.3-.9Z"/><path class="cls-4" d="M44.58,166.59H43.23a4.71,4.71,0,0,1-1.38-.22,4.3,4.3,0,0,1-1.37-.72,4.16,4.16,0,0,1-1-1.31,4.22,4.22,0,0,1-.42-2V148.8h3v13.57a1.16,1.16,0,0,0,.35.88,1.2,1.2,0,0,0,.86.33h1.35Z"/><path class="cls-4" d="M61.43,154.08a30.45,30.45,0,0,1-1.19,3.13,22.23,22.23,0,0,1-1.57,2.93,18,18,0,0,1-2,2.58,12.71,12.71,0,0,1-2.41,2.05,12.24,12.24,0,0,1-2.88,1.35,11.09,11.09,0,0,1-3.38.49,1.71,1.71,0,0,1-.59-.11,1.75,1.75,0,0,1-.48-.32,1.42,1.42,0,0,1-.44-1.06v-11h3v9.41a4.89,4.89,0,0,0,2.11-.48,8.15,8.15,0,0,0,1.91-1.25A11.83,11.83,0,0,0,55.21,160a17.83,17.83,0,0,0,1.38-2,18.58,18.58,0,0,0,1-2.05,14.15,14.15,0,0,0,.63-1.81Z"/><path class="cls-4" d="M65.56,151.51h-3V148.8h3Zm0,15.08h-3V154.08h3Z"/><path class="cls-4" d="M82.3,166.59h-3v-6.94a2.59,2.59,0,0,0-.76-1.87,2.42,2.42,0,0,0-.81-.51,2.79,2.79,0,0,0-1-.18H71.45v9.5h-3v-11a1.43,1.43,0,0,1,.12-.58,1.4,1.4,0,0,1,.32-.47,1.49,1.49,0,0,1,.49-.32,1.45,1.45,0,0,1,.59-.12h6.78a6.46,6.46,0,0,1,1.2.13,5.54,5.54,0,0,1,1.25.41,6.32,6.32,0,0,1,1.18.72,5,5,0,0,1,1,1,5.13,5.13,0,0,1,.69,1.43,6.09,6.09,0,0,1,.25,1.83Z"/><path class="cls-4" d="M98.55,170.26a4.64,4.64,0,0,1-.2,1.4,4.4,4.4,0,0,1-.52,1.09,3.77,3.77,0,0,1-.75.79,4.67,4.67,0,0,1-.9.54,4.79,4.79,0,0,1-1,.31,5,5,0,0,1-.91.1H4.18v-3H94.32a1.22,1.22,0,0,0,.92-.31,1.26,1.26,0,0,0,.3-.91v-12a1.07,1.07,0,0,0-1.22-1.2H88.9a1.14,1.14,0,0,0-.88.34,1.2,1.2,0,0,0-.33.86v4.08a1.1,1.1,0,0,0,1.23,1.21h5.4v3H88.9a4.22,4.22,0,0,1-.91-.1,4.92,4.92,0,0,1-.94-.31,4.27,4.27,0,0,1-.89-.53,3.62,3.62,0,0,1-.76-.8,4.23,4.23,0,0,1-.52-1.09,4.63,4.63,0,0,1-.19-1.39v-4.08a4.9,4.9,0,0,1,.09-.9,4.61,4.61,0,0,1,.85-1.84,3.59,3.59,0,0,1,.8-.75,3.87,3.87,0,0,1,1.08-.52,4.57,4.57,0,0,1,1.39-.2h5.42a5,5,0,0,1,.91.1,4.79,4.79,0,0,1,1,.31,4.67,4.67,0,0,1,.9.54,3.77,3.77,0,0,1,.75.79,4.4,4.4,0,0,1,.52,1.09,4.5,4.5,0,0,1,.2,1.38Z"/><path class="cls-4" d="M125.28,161.71a5.34,5.34,0,0,1-.22,1.6,4.67,4.67,0,0,1-.6,1.25,3.88,3.88,0,0,1-.87.93,5.22,5.22,0,0,1-1,.62,4.29,4.29,0,0,1-1.08.36,4.87,4.87,0,0,1-1,.12H108.84v-3h11.61a1.76,1.76,0,0,0,1.34-.51,1.9,1.9,0,0,0,.48-1.36,2.35,2.35,0,0,0-.12-.77,1.84,1.84,0,0,0-.37-.6,1.56,1.56,0,0,0-.58-.39,2,2,0,0,0-.75-.14h-6.92a5.54,5.54,0,0,1-1.58-.26,4.56,4.56,0,0,1-1.56-.84,4.5,4.5,0,0,1-1.21-1.52,5.68,5.68,0,0,1,0-4.57,4.62,4.62,0,0,1,2.77-2.36,5.54,5.54,0,0,1,1.58-.26h10.24v3H113.53a1.73,1.73,0,0,0-1.34.52,1.92,1.92,0,0,0-.48,1.37,1.89,1.89,0,0,0,.48,1.37,1.76,1.76,0,0,0,1.34.51h6.94a5.58,5.58,0,0,1,1,.13,5.16,5.16,0,0,1,1.08.38,5,5,0,0,1,1,.64,4.29,4.29,0,0,1,.87.93,4.37,4.37,0,0,1,.59,1.25A5.25,5.25,0,0,1,125.28,161.71Z"/><path class="cls-4" d="M139.56,166.59H131.4a4.69,4.69,0,0,1-1.36-.22,4.1,4.1,0,0,1-1.37-.72,4,4,0,0,1-1.48-3.28v-4.08a4.2,4.2,0,0,1,.1-.9,4.77,4.77,0,0,1,.84-1.84,3.82,3.82,0,0,1,.8-.75,3.87,3.87,0,0,1,1.08-.52,4.57,4.57,0,0,1,1.39-.2h8.16v3H131.4a1.21,1.21,0,0,0-.89.3,1.23,1.23,0,0,0-.31.93v4.05a1.22,1.22,0,0,0,.31.9,1.23,1.23,0,0,0,.92.31h8.13Z"/><path class="cls-4" d="M154.87,162.45a4.51,4.51,0,0,1-.22,1.34,3.9,3.9,0,0,1-2,2.38,4.08,4.08,0,0,1-1.93.42h-5.42a4.52,4.52,0,0,1-1.35-.22,4,4,0,0,1-1.34-.71,3.94,3.94,0,0,1-1-1.29,4.06,4.06,0,0,1-.41-1.92,4.64,4.64,0,0,1,.22-1.36,3.86,3.86,0,0,1,.71-1.34,3.8,3.8,0,0,1,1.28-1,4.08,4.08,0,0,1,1.93-.42h5.42v2.87h-5.42a1.21,1.21,0,0,0-.95.38,1.32,1.32,0,0,0-.34.93,1.14,1.14,0,0,0,.39.92,1.39,1.39,0,0,0,.92.33h5.4a1.2,1.2,0,0,0,1-.37,1.32,1.32,0,0,0,.34-.93v-4.2a1.2,1.2,0,0,0-.37-.93,1.28,1.28,0,0,0-.92-.35h-6.6v-2.86h6.6a4.87,4.87,0,0,1,1.35.22,4.22,4.22,0,0,1,1.34.71,3.94,3.94,0,0,1,1,1.29,4.06,4.06,0,0,1,.41,1.92Z"/><path class="cls-4" d="M162.94,166.59H161.6a4.72,4.72,0,0,1-1.39-.22,4.3,4.3,0,0,1-1.37-.72,4.16,4.16,0,0,1-1.05-1.31,4.22,4.22,0,0,1-.42-2V148.8h3v13.57a1.16,1.16,0,0,0,.35.88,1.21,1.21,0,0,0,.87.33h1.34Z"/><path class="cls-4" d="M178.33,158.22a4.87,4.87,0,0,1-.22,1.35,4.06,4.06,0,0,1-.72,1.34,3.8,3.8,0,0,1-1.28,1,4.08,4.08,0,0,1-1.93.42h-5.42v-2.86h5.42a1.21,1.21,0,0,0,.95-.38,1.32,1.32,0,0,0,.34-.93,1.17,1.17,0,0,0-.38-.92,1.29,1.29,0,0,0-.91-.34h-5.42a1.21,1.21,0,0,0-.95.38,1.36,1.36,0,0,0-.34.93v4.2a1.18,1.18,0,0,0,.38.93,1.32,1.32,0,0,0,.93.34h5.4v2.87h-5.42a4.52,4.52,0,0,1-1.35-.22,4,4,0,0,1-1.34-.71,3.9,3.9,0,0,1-1.45-3.21v-4.23a4.51,4.51,0,0,1,.22-1.34,3.9,3.9,0,0,1,2-2.38,4.08,4.08,0,0,1,1.93-.42h5.42a4.87,4.87,0,0,1,1.35.22,4.22,4.22,0,0,1,1.34.71,3.94,3.94,0,0,1,1,1.29A4.06,4.06,0,0,1,178.33,158.22Z"/><path class="cls-4" d="M204.67,166.59h-3v-4.07H191.09v4.07h-3v-8.3a8.86,8.86,0,0,1,.62-3.34,7.75,7.75,0,0,1,4.36-4.34,8.74,8.74,0,0,1,3.31-.61h6.78a1.63,1.63,0,0,1,.59.11,1.51,1.51,0,0,1,.49.33,1.55,1.55,0,0,1,.32.48,1.52,1.52,0,0,1,.12.59Zm-13.58-7.08h10.57V153h-5.29l-.58,0a5.14,5.14,0,0,0-1,.2,6.12,6.12,0,0,0-1.23.5,4.32,4.32,0,0,0-1.2.92,4.78,4.78,0,0,0-.89,1.48,5.68,5.68,0,0,0-.35,2.14Z"/><path class="cls-4" d="M211.19,166.59h-3V150h3Z"/></g></svg>