<?xml version="1.0" encoding="iso-8859-1"?>
<!-- Generator: Adobe Illustrator 19.0.0, SVG Export Plug-In . SVG Version: 6.00 Build 0)  -->
<svg version="1.1" id="Layer_1" xmlns="http://www.w3.org/2000/svg" xmlns:xlink="http://www.w3.org/1999/xlink" x="0px" y="0px"
	 viewBox="0 0 512 512" style="enable-background:new 0 0 512 512;" xml:space="preserve">
<g>
	<g>
		<path d="M478.383,502.897l-3.177-25.979c-0.544-4.45-4.595-7.622-9.043-7.073c-4.451,0.543-7.617,4.593-7.073,9.043l2.063,16.875
			h-48.668l-7.72-57.901c-0.538-4.033-3.978-7.046-8.047-7.046h-29.594L409.78,75.601l45.076,368.649
			c0.543,4.448,4.757,7.683,9.194,7.052c4.321-0.615,7.453-4.684,6.922-9.022L417.767,7.133C417.268,3.061,413.81,0,409.708,0
			H102.291c-4.102,0-7.56,3.061-8.058,7.133l-40.5,331.232c-0.544,4.45,2.622,8.499,7.073,9.043
			c4.453,0.553,8.499-2.622,9.043-7.073l33.01-269.976h257.504l-52.014,425.404h-47.406l7.434-55.756
			c0.639-4.795-3.213-9.191-8.047-9.191H115.282c-4.069,0-7.51,3.012-8.047,7.046l-7.721,57.901H50.845l13.71-112.131
			c0.544-4.45-2.622-8.499-7.073-9.043c-4.449-0.547-8.499,2.623-9.043,7.073L33.617,502.897c-0.583,4.768,3.258,9.103,8.058,9.103
			h64.947c4.069,0,7.509-3.012,8.047-7.046l7.719-57.901h128.668l-7.434,55.756c-0.639,4.795,3.213,9.191,8.047,9.191h98.503
			c4.109,0,7.571-3.07,8.06-7.151l6.942-57.796h24.436l7.72,57.901c0.538,4.033,3.978,7.046,8.047,7.046h64.947
			C475.125,512,478.966,507.664,478.383,502.897z M104.845,54.123l4.632-37.886h36.313l-37.886,37.886H104.845z M130.866,54.123
			l37.886-37.886h26.024L156.89,54.123H130.866z M179.852,54.123l37.886-37.886h33.137l-37.886,37.886H179.852z M235.951,54.123
			l37.886-37.886h26.024l-37.886,37.886H235.951z M284.938,54.123l37.886-37.886h33.137l-37.886,37.886H284.938z M341.129,54.031
			l24.187-24.187l-2.945,24.089L341.129,54.031z M342.971,495.763h-18.265l58.632-479.526h17.219L342.971,495.763z"/>
	</g>
</g>
<g>
	<g>
		<path d="M312.043,355.412l-66.845-234.813c-2.795-9.815-11.17-16.723-21.337-17.597c-10.175-0.871-19.6,4.502-24.029,13.695
			L86.71,351.509c-3.659,7.594-3.165,16.389,1.318,23.527c4.485,7.138,12.194,11.399,20.623,11.399h179.966
			c7.708,0,14.793-3.528,19.438-9.679C312.7,370.605,314.154,362.825,312.043,355.412z M288.619,370.199H108.652
			c-5.898,0-9.884-6.307-7.313-11.642L214.46,123.744c1.952-4.051,5.542-4.593,7.323-4.593c0.277,0,0.511,0.013,0.687,0.028
			c1.309,0.113,5.689,0.868,7.113,5.866l66.845,234.812C297.883,364.968,293.924,370.199,288.619,370.199z"/>
	</g>
</g>
<g>
	<g>
		<path d="M210.322,303.223c-3.29-4.579-8.164-7.603-13.728-8.516c-5.566-0.913-11.153,0.395-15.731,3.686
			c-4.578,3.29-7.602,8.165-8.513,13.729l-2.129,12.989c-0.913,5.564,0.397,11.149,3.687,15.729
			c3.289,4.579,8.164,7.603,13.725,8.516c1.134,0.186,2.289,0.28,3.432,0.28c10.38,0,19.133-7.442,20.814-17.695l2.129-12.989
			C214.921,313.388,213.612,307.803,210.322,303.223z M197.985,316.325l-2.129,12.989c-0.393,2.397-2.57,4.185-5.001,4.081
			c-2.878-0.124-5.081-2.802-4.611-5.657l2.129-12.989c0.43-2.627,2.972-4.439,5.594-4.018
			C196.586,311.151,198.415,313.711,197.985,316.325z"/>
	</g>
</g>
<g>
	<g>
		<path d="M216.115,175.638c-5.563-0.909-11.149,0.398-15.728,3.686c-4.58,3.29-7.604,8.165-8.517,13.729l-12.422,75.772
			c-1.883,11.486,5.929,22.361,17.413,24.245c11.392,1.868,22.38-6.03,24.246-17.415l12.422-75.772
			C235.412,188.398,227.6,177.521,216.115,175.638z M217.505,197.255l-12.422,75.772c-0.431,2.629-2.899,4.465-5.594,4.018
			c-2.65-0.434-4.453-2.943-4.018-5.594l12.422-75.772c0.43-2.625,2.974-4.439,5.594-4.018
			C216.106,192.081,217.935,194.641,217.505,197.255z"/>
	</g>
</g>
<g>
</g>
<g>
</g>
<g>
</g>
<g>
</g>
<g>
</g>
<g>
</g>
<g>
</g>
<g>
</g>
<g>
</g>
<g>
</g>
<g>
</g>
<g>
</g>
<g>
</g>
<g>
</g>
<g>
</g>
</svg>
