<svg id="_x31__px" height="512" viewBox="0 0 24 24" width="512" xmlns="http://www.w3.org/2000/svg"><g><path d="m10.24 20.56c-.089 0-.179-.023-.26-.073-2.341-1.428-9.98-6.692-9.98-14.457 0-3.325 2.705-6.03 6.03-6.03 2.044 0 3.877.945 4.97 2.515 1.093-1.57 2.926-2.515 4.97-2.515 3.325 0 6.03 2.705 6.03 6.03 0 .83-.087 1.671-.26 2.502-.057.27-.322.44-.592.388-.27-.057-.444-.321-.388-.592.159-.764.24-1.537.24-2.298 0-2.774-2.256-5.03-5.03-5.03-1.973 0-3.705 1.042-4.521 2.719-.168.344-.731.344-.899 0-.815-1.677-2.548-2.719-4.52-2.719-2.774 0-5.03 2.256-5.03 5.03 0 7.245 7.272 12.244 9.5 13.604.236.144.311.451.167.687-.094.154-.259.239-.427.239z"/></g><g><path d="m18 24c-.066 0-.132-.013-.194-.04-.238-.099-5.806-2.506-5.806-7.424v-4.179c0-.214.137-.405.34-.474l5.5-1.857c.104-.035.216-.035.32 0l5.5 1.857c.203.068.34.259.34.474v4.179c0 4.918-5.568 7.325-5.806 7.425-.062.026-.128.039-.194.039zm-5-11.284v3.82c0 3.785 4.055 5.958 5 6.414.944-.457 5-2.638 5-6.414v-3.82l-5-1.688z"/></g><g><path d="m17.5 19c-.009 0-.019 0-.028-.001-.142-.008-.274-.076-.363-.187l-2-2.5c-.172-.216-.137-.53.078-.703.216-.173.531-.137.703.078l1.651 2.064 3.105-3.105c.195-.195.512-.195.707 0s.195.512 0 .707l-3.5 3.5c-.093.095-.221.147-.353.147z"/></g></svg>