<svg id="Capa_1" enable-background="new 0 0 512 512" height="512" viewBox="0 0 512 512" width="512" xmlns="http://www.w3.org/2000/svg"><g><path d="m226.709 161.634c4.143 0 7.5-3.357 7.5-7.5v-2.027c0-4.143-3.357-7.5-7.5-7.5s-7.5 3.357-7.5 7.5v2.027c0 4.142 3.357 7.5 7.5 7.5z"/><path d="m285.179 161.634c4.143 0 7.5-3.357 7.5-7.5v-2.027c0-4.143-3.357-7.5-7.5-7.5s-7.5 3.357-7.5 7.5v2.027c0 4.142 3.357 7.5 7.5 7.5z"/><path d="m239.34 197.29c4.888 2.529 10.746 3.795 16.605 3.795 5.857 0 11.716-1.266 16.604-3.795 3.679-1.904 5.117-6.43 3.214-10.108-1.905-3.68-6.434-5.118-10.108-3.214-5.536 2.865-13.885 2.865-19.419 0-3.681-1.904-8.204-.465-10.108 3.214-1.905 3.678-.467 8.204 3.212 10.108z"/><path d="m429.551 448.662h-47.231v-9.802c2.466.755 4.986 1.125 7.484 1.125 9.466-.001 18.594-5.23 23.097-14.258 4.79-9.601 2.997-20.791-3.647-28.424l-8.315-20.467c-1.56-3.837-5.933-5.689-9.772-4.125-3.837 1.559-5.685 5.934-4.125 9.772l.801 1.971-49.59-24.726-15.063-17.028c-2.931-3.313-6.978-5.287-11.394-5.558-1.813-.111-3.593.086-5.296.54-15.122-9.529-32.489-14.553-50.5-14.553-18.009 0-35.374 5.023-50.496 14.55-1.706-.457-3.488-.653-5.301-.537-4.416.271-8.463 2.244-11.394 5.558l-15.064 17.029-49.592 24.727 33.533-82.552c6.613-16.265 22.226-26.775 39.773-26.775h22.697c1.755 4.183 4.469 7.954 8.007 10.977 3.526 2.312 11.555 13.112 27.838 13.112 7.837 0 15.674-2.731 22.065-8.192 3.67-3.576 9.989-6.868 13.777-15.897h22.697c17.547 0 33.159 10.51 39.771 26.772l19.37 47.7c1.184 2.913 3.989 4.68 6.952 4.68.939 0 1.895-.178 2.819-.553 3.837-1.559 5.686-5.934 4.127-9.772l-5.259-12.95v-28.988c0-31.051-15.899-59.165-42.534-75.207-6.617-3.98-12.343-9.293-16.815-15.499 4.005-5.83 6.418-11.248 8.229-20.124h11.51c14.8 0 26.84-12.04 26.84-26.84 0-8.895-4.352-16.789-11.036-21.676l1.314-59.278c.384-17.263-6.055-33.569-18.129-45.916-12.072-12.344-28.228-19.142-45.489-19.142h-.27c-4.555 0-8.968-1.141-12.763-3.299-21.17-12.044-47.195-17.215-71.397-14.192-4.11.514-7.026 4.262-6.513 8.372.515 4.111 4.271 7.018 8.372 6.513 21.06-2.631 43.703 1.868 62.121 12.346 6.051 3.442 13.028 5.262 20.18 5.262h.27c13.192 0 25.538 5.195 34.765 14.63 9.23 9.437 14.15 21.899 13.857 35.095l-1.208 54.469c-.304-.01-.608-.023-.915-.023h-10.518c-3.045-28.236-11.266-60.444-26.211-73.148-.195-.166-.392-.323-.594-.485l-.095-.075c-6.103-4.963-14.773-5.085-21.093-.291-23.464 17.846-51.396 28.999-80.779 32.255-9.921 1.103-17.967 8.405-20.022 18.173-1.571 7.48-2.824 15.517-3.693 23.571 0 0-11.138.013-11.442.023l-.687-30.929c-.123-5.263-1.997-10.266-5.277-14.089-9.729-11.336-9.754-32.426-.06-47.007 5.426-8.142 12.537-14.822 21.137-19.857 3.575-2.092 4.777-6.687 2.685-10.261-2.093-3.576-6.688-4.777-10.261-2.685-10.582 6.193-19.345 14.431-26.048 24.49-13.388 20.138-12.877 48.728 1.163 65.087 1.031 1.202 1.623 2.861 1.665 4.663l.793 35.728c-6.683 4.887-11.036 12.781-11.036 21.675 0 14.8 12.04 26.84 26.84 26.84h11.51c1.592 7.804 3.777 13.726 8.269 20.225-4.45 6.148-10.152 11.427-16.748 15.4-26.632 16.04-42.531 44.154-42.531 75.205v28.98l-26.933 66.304c-6.645 7.632-8.438 18.824-3.648 28.425 4.504 9.026 13.629 14.257 23.096 14.256 2.498 0 5.019-.37 7.485-1.125v9.803h-47.227c-23.068 0-41.836 18.768-41.836 41.836v8.689c0 7.064 5.748 12.813 12.813 12.813h299.264c4.143 0 7.5-3.357 7.5-7.5s-3.357-7.5-7.5-7.5h-297.077v-6.502c0-14.797 12.039-26.836 26.836-26.836h64.317c9.786 0 19.077-2.943 26.867-8.512 15.677-11.206 35.175-18.165 56.641-18.165h51.453c21.126 0 40.684 6.759 56.641 18.165 7.79 5.568 17.081 8.512 26.867 8.512h64.317c14.797 0 26.836 12.039 26.836 26.836v6.504h-68.698c-4.143 0-7.5 3.357-7.5 7.5s3.357 7.5 7.5 7.5h70.886c7.064 0 12.813-5.748 12.813-12.813v-8.689c-.002-23.068-18.769-41.836-41.838-41.836zm-30.071-29.631c-2.648 5.309-9.126 7.471-14.432 4.827l-42.281-21.086c1.696-1.294 2.085-1.74 6.483-5.612 3.701-3.259 5.562-7.831 5.563-12.414l39.839 19.864c2.571 1.283 4.489 3.49 5.4 6.214.913 2.724.709 5.639-.572 8.207zm-63.56-.982c0 5.734-.608 11.389-1.796 16.905-4.488-2.373-9.107-4.447-13.845-6.179.588-3.529.891-7.115.891-10.726 0-3.054-.211-6.081-.629-9.069.426.044.853.082 1.283.11l14.058 7.011c.016.651.038 1.305.038 1.948zm-8.129-47.508c.095.115.195.226.297.336l11.358 12.839c.572.646.512 1.639-.134 2.209l-4.69 4.148c-6.72 5.944-17.027 5.314-22.973-1.406l-7.998-9.042c-2.88-3.256-4.32-7.439-4.055-11.777.266-4.34 2.205-8.315 5.461-11.195l4.69-4.148c.3-.265.7-.416 1.132-.39.295.019.721.124 1.076.525zm-34.615-23.244c-3.484 3.653-5.991 8.034-7.372 12.825-9.161-4.718-19.393-7.242-29.804-7.242s-20.643 2.524-29.804 7.242c-1.381-4.79-3.888-9.172-7.372-12.825 11.409-6.015 24.089-9.168 37.176-9.168s25.767 3.152 37.176 9.168zm-93.131 5.342c.355-.401.781-.507 1.076-.525.298-.02.73.035 1.133.391l4.688 4.147c3.257 2.881 5.196 6.856 5.462 11.196.266 4.339-1.175 8.522-4.056 11.778l-7.996 9.04c-5.946 6.724-16.254 7.353-22.975 1.406l-4.688-4.146c-.646-.571-.707-1.563-.135-2.21zm-22.169 82.316c-1.324-6.149-1.919-12.337-1.758-18.854l14.058-7.011c.43-.028.857-.065 1.283-.11-.911 6.526-.838 13.185.262 19.795-4.738 1.733-9.357 3.807-13.845 6.18zm96.228-160.263-5.775 4.925c-7.145 6.105-17.514 6.103-24.662-.005l-5.765-4.916c-3.203-2.736-5.041-6.727-5.041-10.947v-25.346c7.313 1.646 15.077 2.517 23.08 2.517.029 0 .061-.001.09-.001 8.014-.006 15.788-.886 23.109-2.543v25.373c0 4.22-1.838 8.21-5.036 10.943zm57.947-35.029c19.481 11.733 32.03 31.255 34.72 53.363-9.608-20.095-29.736-32.898-52.231-32.898h-20.4v-26.508c6.949-2.904 13.21-6.618 18.522-11.042 5.351 6.78 11.933 12.601 19.389 17.085zm22.499-75.314c0 6.528-5.312 11.84-11.84 11.84h-9.539c.525-7.264.591-15.253.191-23.681h9.348c6.529 0 11.84 5.311 11.84 11.841zm-149.474-53.677c32.079-3.555 62.58-15.735 88.198-35.218.392-.298.85-.448 1.305-.448s.906.151 1.283.458l.421.339c10.117 8.6 19.004 37.305 21.612 69.805 1.094 13.692.932 26.858-.455 37.067-1.299 9.511-3.237 16.315-9.333 23.451-12.334 14.327-33.608 19.778-52.089 19.793-.026 0-.052 0-.078 0-18.636 0-40.087-5.831-52.088-19.727-6.128-7.109-8.091-13.924-9.4-23.513-1.39-10.23-1.548-23.395-.444-37.075.772-9.693 2.182-19.577 4.073-28.581.717-3.414 3.529-5.966 6.995-6.351zm-47.736 53.677c0-6.529 5.312-11.841 11.84-11.841h9.354c-.403 8.421-.339 16.409.186 23.681h-9.54c-6.529-.001-11.84-5.312-11.84-11.84zm22.61 75.313c7.447-4.486 14.013-10.286 19.347-17.028 5.322 4.424 11.596 8.136 18.563 11.035v26.46h-20.4c-22.494 0-42.622 12.802-52.231 32.899 2.69-22.109 15.239-41.632 34.721-53.366zm-67.43 179.37c-1.281-2.569-1.485-5.484-.573-8.208.911-2.724 2.829-4.931 5.399-6.213l39.84-19.865c.001 4.583 1.862 9.155 5.564 12.414 4.503 3.965 4.804 4.331 6.482 5.611l-42.278 21.085c-5.312 2.649-11.786.482-14.434-4.824zm32.159 29.63v-16.882l16.574-8.265c.38 6.703 1.459 13.299 3.224 19.717-5.144 3.545-11.251 5.43-17.711 5.43zm85.594-26.677c-8.157 0-16.193.888-24.016 2.591-.993-7.616-.276-15.481 2.376-23.054 1.038-.902 2.028-1.872 2.954-2.919l7.996-9.04c3.068-3.469 5.282-7.485 6.562-11.795 8.591-6.39 19.099-9.889 29.854-9.889s21.263 3.499 29.854 9.889c1.28 4.31 3.494 8.327 6.561 11.794l7.998 9.042c.926 1.047 1.916 2.016 2.953 2.918 1.856 5.299 2.804 10.848 2.804 16.526 0 2.193-.147 4.373-.428 6.527-7.823-1.703-15.858-2.591-24.016-2.591h-51.452zm117.25 21.246c1.765-6.418 2.844-13.014 3.224-19.717l16.574 8.265v16.882h-2.086c-6.461.001-12.568-1.885-17.712-5.43z"/></g></svg>