<svg height="512pt" viewBox="0 -5 512 512" width="512pt" xmlns="http://www.w3.org/2000/svg"><path d="m40.660156 63.277344h23.34375c9.921875 0 9.933594-15.011719 0-15.011719h-23.34375c-14.140625 0-25.648437-11.507813-25.648437-25.652344 0-4.191406 3.410156-7.601562 7.601562-7.601562h466.773438c4.191406 0 7.601562 3.414062 7.601562 7.601562 0 14.144531-11.507812 25.652344-25.648437 25.652344h-377.316406c-9.921876 0-9.933594 15.011719 0 15.011719h251.003906v11.253906c0 9.621094 7.828125 17.449219 17.449218 17.449219h10.25c.019532 30.636719-.050781 28.9375.054688 29.632812l-76.59375 46.597657c-29.253906 4.6875-34.558594 44.445312-8.035156 56.855468l89.882812 42.050782c.246094.78125.527344 1.546874.839844 2.296874l-11.710938 25.894532c-6.050781 13.386718 11.476563 19.148437 15.214844 22.785156 8.136719 5.507812 16.679688-6.835938 8.414063-12.433594l-9.0625-6.132812 7.878906-17.417969c8.753906 5.523437 20.113281 5.695313 29.148437-.003906l7.878907 17.421875-9.0625 6.132812c-8.265625 5.597656.273437 17.945313 8.414062 12.433594 3.722657-3.625 21.269531-9.398438 15.214844-22.789062l-11.71875-25.90625c7.347656-17.6875-5.4375-37.425782-24.683594-37.855469l-42.890625-28.828125 57.578125-22.101563c21.0625-8.085937 30.300781-32.777343 19.820313-52.679687v-35.957032h10.25c9.621094 0 17.445312-7.824218 17.445312-17.445312v-11.253906h4.335938c22.421875 0 40.660156-18.242188 40.660156-40.664063 0-12.46875-10.144531-22.613281-22.613281-22.613281h-466.773438c-12.46875 0-22.613281 10.144531-22.613281 22.613281 0 22.421875 18.238281 40.664063 40.660156 40.664063zm245.855469 138.960937c-4.074219-13.382812 10.980469-24.730469 22.738281-16.832031l77.703125 52.230469c-4.097656 3.320312-7.222656 7.800781-8.867187 12.929687-83.269532-40.753906-88.164063-37.121094-91.574219-48.328125zm130.039063 56.6875c0 6.824219-5.554688 12.378907-12.378907 12.378907-6.828125 0-12.378906-5.554688-12.378906-12.378907 0-6.828125 5.550781-12.378906 12.378906-12.378906 6.824219 0 12.378907 5.550781 12.378907 12.378906zm10.511718-105.191406c-6.164062 15.707031-18.289062 12.679687-80.382812 38.746094-38.253906-25.710938-27.070313-18.214844-29.222656-19.640625l76.773437-46.707032c18.46875-11.238281 40.6875 7.570313 32.832031 27.601563zm-2.773437-41.160156c-11.429688-6.371094-25.28125-6.273438-36.558594-.023438v-20.574219h36.558594zm27.699219-38.042969c0 1.34375-1.09375 2.433594-2.433594 2.433594h-87.082032c-1.34375 0-2.4375-1.089844-2.4375-2.433594v-11.253906h91.953126zm0 0"/><path d="m463.644531 382.53125-66.511719-13.226562c-13.308593-2.648438-26.296874-10.691407-34.910156-16.507813-36.769531-21.53125-60.394531-51.539063-110.1875-51.539063h-88.667968c-29.449219 0-57.140626 11.46875-77.964844 32.296876-13.097656 13.097656-29.601563 22.027343-47.730469 25.824218-21.828125 4.570313-37.671875 24.078125-37.671875 46.378906v59.695313c0 19.261719 19.738281 21.550781 25.402344 25.292969 11.113281 4.9375 23.988281-1.09375 27.40625-12.75 10.640625-36.265625 62.191406-36.332032 73-.359375.078125.113281 7.601562 24.390625 31.839844 24.390625h209.042968c10.203125 0 18.761719-7.597656 19.90625-17.675782 3.5-30.804687 40.800782-44.707031 63.601563-23.6875 6.371093 5.878907 10.457031 13.480469 11.8125 21.980469 1.789062 11.234375 11.355469 19.382813 22.746093 19.382813 15.023438 0 27.242188-12.21875 27.242188-27.238282v-33.339843c0-10.925781-2.980469-21.644531-8.617188-31.003907-8.710937-14.449218-23.191406-24.625-39.738281-27.914062zm19.054688 46.023438c0-8.320313 9.460937-7.164063 9.5625-7.199219 2.457031 4.933593 3.988281 10.273437 4.515625 15.757812h-14.078125zm-5.863281 51.730468c-4.09375-25.6875-26.15625-44.597656-52.414063-44.597656-12.9375 0-25.875 4.648438-35.957031 13.945312-21.53125 19.855469-12.035156 37.386719-21.773438 37.386719h-209.039062c-12.875 0-17.394532-13.585937-17.464844-13.6875-15.125-50.355469-86.972656-50.023437-101.78125.441407-.859375 2.925781-4.0625 4.515624-6.90625 3.253906-8.625-4.703125-16.488281-4.828125-16.488281-11.574219v-59.695313c0-15.234374 10.824219-28.5625 25.734375-31.683593 20.996094-4.398438 40.105468-14.738281 55.269531-29.902344 17.992187-17.992187 41.910156-27.898437 67.351563-27.898437h88.667968c43.699219 0 63.703125 26.394531 101.78125 48.964843 10.507813 7.097657 24.597656 15.652344 40.386719 18.792969 59.789063 13.527344 72.535156 10.277344 87.710937 23.796875-8.3125 3.214844-14.226562 11.292969-14.226562 20.730469v11.496094c0 6.65625 5.414062 12.074218 12.074219 12.074218h17.226562v22.664063c0 13.054687-18.347656 16.828125-20.152343 5.492187zm0 0"/><path d="m351.796875 377.851562c-45.4375-26.789062-61.300781-50.484374-98.664063-50.484374h-31.199218c-6.789063 0-12.449219 4.9375-12.34375 12.527343l.65625 45.722657c.144531 9.957031 15.152344 9.699218 15.011718-.214844l-.621093-43.023438h28.496093c31.527344 0 45.28125 21.425782 91.039063 48.402344 1.777344 1.046875 2.878906 3.019531 2.878906 5.148438v59.695312c0 1.453125-1.183593 2.636719-2.636719 2.636719h-118.109374l-.605469-42.203125c-.144531-10.023438-15.15625-9.738282-15.011719.214844l.648438 44.828124c.09375 6.710938 5.632812 12.171876 12.347656 12.171876h120.730468c9.734376 0 17.648438-7.917969 17.648438-17.648438v-59.695312c0-7.417969-3.933594-14.34375-10.265625-18.078126zm0 0"/><path d="m179.714844 327.496094-10.234375-.277344c-51.863281-1.484375-59.269531 28.25-91.027344 44.839844-4.058594 2.117187-6.578125 6.28125-6.578125 10.863281v26.25c0 6.757813 5.523438 12.253906 12.308594 12.253906.039062 0 3.878906-.160156 4.949218-.160156 28.253907 0 53.988282 17.742187 64.039063 44.148437 3.140625 8.257813 11.429687 7.902344 11.527344 7.9375l14.871093-.132812c6.703126-.066406 12.152344-5.566406 12.148438-12.269531l-.082031-121.203125c-.003907-6.6875-5.242188-12.066406-11.921875-12.25zm-13.203125 130.824218c-13.164063-32.335937-45.660157-53.152343-79.625-52.019531v-21.730469c6.6875-3.640624 18.386719-10.980468 30.550781-23.144531 22.566406-22.566406 47.949219-18.4375 59.191406-18.996093l.074219 115.800781zm0 0"/></svg>