<svg id="Capa_1" enable-background="new 0 0 512 512" height="512" viewBox="0 0 512 512" width="512" xmlns="http://www.w3.org/2000/svg"><g id="Solid"><g><path d="m96 128c26.51 0 48-21.49 48-48s-21.49-48-48-48-48 21.49-48 48c.03 26.497 21.503 47.97 48 48zm-8-51.314v-28.686h16v32c0 2.122-.843 4.157-2.343 5.657l-24 24-11.314-11.314z"/><path d="m296 412c-.007-6.624-5.376-11.993-12-12h-56c-6.624.007-11.993 5.376-12 12v4h80z"/><path d="m301.657 466.343c-1.5-1.5-3.535-2.343-5.657-2.343h-32v-40h-16v40h-32c-2.122 0-4.157.843-5.657 2.343l-8 8c-1.5 1.5-2.343 3.535-2.343 5.657v16h16v-12.687l3.313-3.313h28.687v16h16v-16h28.687l3.313 3.313v12.687h16v-16c0-2.122-.843-4.157-2.343-5.657z"/><path d="m39.11 257.614 6.165 14.386h21.45l6.165-14.386c.229-.533.431-1.071.608-1.614h14.502v-16h-12.686l8-8-11.314-11.313-8 8v-12.687h-16v12.687l-8-8-11.314 11.313 8 8h-12.686v16h14.5c.179.542.382 1.08.61 1.614z"/><path d="m424 304v-32h-32v32c0 8.837 7.163 16 16 16s16-7.163 16-16z"/><path d="m232 240v40c0 .86-.139 1.714-.41 2.53l-12.49 37.47h41.8l-12.49-37.47c-.271-.816-.41-1.67-.41-2.53v-40z"/><path d="m342 168h-204c-1.105 0-2 .895-2 2v108c0 1.105.895 2 2 2h77.567l.433-1.3v-38.7h-16v-16h80v16h-16v38.7l.433 1.3h77.567c1.105 0 2-.895 2-2v-108c0-1.105-.895-2-2-2zm-94 40h-16v-16h16z"/><path d="m269.766 296 8 24h102.534c-2.822-4.86-4.306-10.38-4.3-16v-8z"/><path d="m96 296-8 24h112l8-24z"/><path d="m32 295.015 6.246 24.985h35.508l6.246-24.985v-7.015h-48z"/><path d="m440 272.686v22.628c6.249-2.209 9.523-9.065 7.315-15.313-1.208-3.418-3.897-6.107-7.315-7.315z"/><path d="m424 80h-16v-8h-24v48h64v-48h-24z"/><path d="m360 184v40h88v-40h-32v8h-16v-8z"/><path d="m248 32v120h94c9.163.011 16.86 6.895 17.889 16h40.111v-8h16v8h40c4.418 0 8 3.582 8 8v56c0 4.418-3.582 8-8 8h-96v38c0 .668-.037 1.336-.111 2h16.111v-16c0-4.418 3.582-8 8-8h52c13.913.017 25.709 10.233 27.715 24h16.285v-248zm112 96c0 4.418-3.582 8-8 8h-80c-4.418 0-8-3.582-8-8v-64c0-4.418 3.582-8 8-8h32v-8h16v8h32c4.418 0 8 3.582 8 8zm104 0c0 4.418-3.582 8-8 8h-80c-4.418 0-8-3.582-8-8v-64c0-4.418 3.582-8 8-8h32v-8h16v8h32c4.418 0 8 3.582 8 8z"/><path d="m320 80h-16v-8h-24v48h64v-48h-24z"/><path d="m32 352h48v6.55l-47.49 126.641c-.337.898-.51 1.85-.51 2.809v8h16v-6.549l12.544-33.451h54.912l12.544 33.451v6.549h16v-8c0-.959-.173-1.911-.51-2.809l-47.49-126.641v-6.55h320v6.55l-47.49 126.641c-.337.898-.51 1.85-.51 2.809v8h16v-6.549l12.544-33.451h54.912l12.544 33.451v6.549h16v-8c0-.959-.173-1.911-.51-2.809l-47.49-126.641v-6.55h48v-16h-448zm413.456 88h-42.912l21.456-57.216zm-336 0h-42.912l21.456-57.216z"/></g></g></svg>