<svg xmlns="http://www.w3.org/2000/svg" xmlns:xlink="http://www.w3.org/1999/xlink" viewBox="0 0 680 141.75"><defs><style>.cls-1{fill:#021035;}.cls-2{fill:url(#linear-gradient);}.cls-3{fill:url(#linear-gradient-2);}.cls-4{fill:url(#linear-gradient-3);}.cls-5{fill:url(#linear-gradient-4);}.cls-6{fill:url(#linear-gradient-5);}.cls-7{fill:url(#linear-gradient-6);}.cls-8{fill:url(#linear-gradient-7);}.cls-9{fill:url(#linear-gradient-8);}.cls-10{fill:url(#linear-gradient-9);}.cls-11{fill:url(#linear-gradient-10);}.cls-12{fill:url(#linear-gradient-11);}.cls-13{fill:url(#linear-gradient-12);}.cls-14{fill:url(#linear-gradient-13);}.cls-15{fill:url(#linear-gradient-14);}.cls-16{fill:url(#linear-gradient-15);}.cls-17{fill:#fff;}</style><linearGradient id="linear-gradient" x1="91.25" y1="14.99" x2="47.15" y2="76.74" gradientUnits="userSpaceOnUse"><stop offset="0" stop-color="#69d7f9"/><stop offset="1" stop-color="#1c75bc"/></linearGradient><linearGradient id="linear-gradient-2" x1="112.97" y1="30.51" x2="68.86" y2="92.25" xlink:href="#linear-gradient"/><linearGradient id="linear-gradient-3" x1="134.15" y1="45.64" x2="90.05" y2="107.38" xlink:href="#linear-gradient"/><linearGradient id="linear-gradient-4" x1="120.93" y1="36.19" x2="76.83" y2="97.94" xlink:href="#linear-gradient"/><linearGradient id="linear-gradient-5" x1="115.26" y1="32.14" x2="71.15" y2="93.89" xlink:href="#linear-gradient"/><linearGradient id="linear-gradient-6" x1="103.7" y1="23.89" x2="59.6" y2="85.63" xlink:href="#linear-gradient"/><linearGradient id="linear-gradient-7" x1="99.1" y1="20.6" x2="55" y2="82.35" xlink:href="#linear-gradient"/><linearGradient id="linear-gradient-8" x1="100.47" y1="21.58" x2="56.37" y2="83.32" xlink:href="#linear-gradient"/><linearGradient id="linear-gradient-9" x1="107.22" y1="26.4" x2="63.12" y2="88.14" xlink:href="#linear-gradient"/><linearGradient id="linear-gradient-10" x1="85.51" y1="10.9" x2="41.41" y2="72.64" xlink:href="#linear-gradient"/><linearGradient id="linear-gradient-11" x1="81.86" y1="8.29" x2="37.76" y2="70.03" xlink:href="#linear-gradient"/><linearGradient id="linear-gradient-12" x1="85.16" y1="10.64" x2="41.05" y2="72.38" xlink:href="#linear-gradient"/><linearGradient id="linear-gradient-13" x1="91.76" y1="15.36" x2="47.66" y2="77.1" xlink:href="#linear-gradient"/><linearGradient id="linear-gradient-14" x1="658.6" y1="8.4" x2="599.06" y2="98.81" xlink:href="#linear-gradient"/><linearGradient id="linear-gradient-15" x1="664.44" y1="12.25" x2="604.9" y2="102.66" xlink:href="#linear-gradient"/></defs><g id="HQ"><rect class="cls-1" x="0.83" width="679.17" height="141.75"/><path class="cls-2" d="M39,133l-1.21-5.34c-1.25-5.54-2.5-11.08-3.81-16.6a5.73,5.73,0,0,0-4.37-4.4,33.08,33.08,0,0,0-4.46-.67c-1.14-.12-2.32-.25-3.48-.46l-1-.18a45.64,45.64,0,0,1-7.76-1.86c-3.3-1.19-4.39-3.51-3.34-7.1.91-3.11,1.6-6.18,0-9.34-.49-1,0-2.45.5-3.63a2.86,2.86,0,0,0,.23-.65h0l-.16-.1a3.5,3.5,0,0,1-1.5-4.34A31.87,31.87,0,0,0,9.36,75l.13-.77c.22-1.25-.24-1.44-.82-1.55A5.42,5.42,0,0,1,7,72a4.58,4.58,0,0,1-2.36-2.84,4.5,4.5,0,0,1,.84-3.54c2.42-3.59,4.9-7,7.38-10.25a9.09,9.09,0,0,0,1.85-8.42c-1.54-5.47-.08-10.53,1.68-15.66C19.79,21.24,26.72,14,37.51,9c8.93-4.08,18.86-4.65,30.37-1.73,20.15,5.1,39.49,22.9,37.47,47-1,12.24-8.08,20-15.55,28.22-1.19,1.31-2.4,2.64-3.59,4-7.93,9-9.14,19.75-3.6,31.82l-1.34.61c-5.8-12.64-4.51-23.88,3.84-33.4,1.19-1.36,2.4-2.69,3.6-4,7.3-8,14.19-15.61,15.17-27.35,2-23.33-16.81-40.55-36.36-45.5-11.18-2.83-20.79-2.29-29.4,1.65-10.4,4.76-17.07,11.76-20.39,21.41-1.69,4.9-3.08,9.72-1.65,14.79A10.47,10.47,0,0,1,14,56.26c-2.45,3.19-4.92,6.61-7.32,10.18A3,3,0,0,0,6,68.82a3.09,3.09,0,0,0,1.64,1.89,4.66,4.66,0,0,0,1.27.53c.93.17,2.43.83,2,3.25l-.13.76a31.09,31.09,0,0,1-.75,3.52,2.05,2.05,0,0,0,.87,2.69c1.27.79.81,1.86.5,2.57-.71,1.71-.61,2.25-.53,2.4,1.8,3.65,1,7.14.06,10.42-.85,2.88-.17,4.36,2.43,5.3a45.49,45.49,0,0,0,7.52,1.79l1,.18c1.1.2,2.25.33,3.37.44a37.78,37.78,0,0,1,4.66.71,7.22,7.22,0,0,1,5.44,5.49c1.31,5.53,2.57,11.07,3.82,16.62l1.21,5.33Z"/><circle class="cls-3" cx="39.82" cy="132.9" r="3.4"/><circle class="cls-4" cx="81.93" cy="118.75" r="6.11"/><circle class="cls-5" cx="86.23" cy="84.78" r="3.4"/><circle class="cls-6" cx="104.11" cy="47.75" r="4.64"/><circle class="cls-7" cx="78.3" cy="59.45" r="3.4"/><circle class="cls-8" cx="59.34" cy="76.27" r="5.6"/><circle class="cls-9" cx="46.56" cy="97.06" r="3.4"/><path class="cls-10" d="M39.2,133a85.61,85.61,0,0,1,65.26-85.81l.35,1.42A84.11,84.11,0,0,0,40.67,132.9Z"/><path class="cls-11" d="M85.5,84.84A59.63,59.63,0,0,0,18.7,30.28l-.18-1.46A61.09,61.09,0,0,1,87,84.73Z"/><path class="cls-12" d="M103.73,47.55a81.24,81.24,0,0,0-85.6-18.2L17.61,28A82.67,82.67,0,0,1,104.76,46.5Z"/><path class="cls-13" d="M81,84.71A82.64,82.64,0,0,1,17.6,29l1.4-.45A81.15,81.15,0,0,0,81.23,83.26c1.69.32,3.4.58,5.09.79l-.18,1.46C84.42,85.3,82.67,85,81,84.71Z"/><path class="cls-14" d="M81.85,119.16A93.4,93.4,0,0,1,17.34,29.62l1.47,0A91.9,91.9,0,0,0,82.3,117.76Z"/><polygon class="cls-15" points="609.32 71.57 630.51 71.57 620.02 46.45 609.32 71.57"/><path class="cls-16" d="M626.8,20.69a48.7,48.7,0,1,0,48.7,48.7A48.7,48.7,0,0,0,626.8,20.69Zm13.42,74.36L632.44,76.5H607l-7.7,18.55h-7L616.81,40.1H623l23.33,55Zm15.26,0H650V40.1h5.5Z"/><path class="cls-17" d="M125.34,79.56a10.65,10.65,0,0,0,3.07,7.78A10.39,10.39,0,0,0,136,90.7a10.66,10.66,0,0,0,7.92-3.14,10.23,10.23,0,0,0,3.21-7.85C147,74.64,143.61,71.07,137,69l-5.86-1.78c-6.2-1.93-9.77-6.85-9.84-13.42a13,13,0,0,1,4.49-10.27,14.94,14.94,0,0,1,10.78-4.21,15,15,0,0,1,14.7,15h-5.78a8.88,8.88,0,0,0-2.57-6.63,9.06,9.06,0,0,0-6.35-3,9.28,9.28,0,0,0-7.07,2.64A8.46,8.46,0,0,0,126.63,54c.07,4.28,2.21,7.06,6.35,8.35l6.64,2.07q12.74,4,12.84,15.41a15.33,15.33,0,0,1-4.78,11.49,16.49,16.49,0,0,1-28.12-11.78Z"/><path class="cls-17" d="M192.41,89.91A19.66,19.66,0,0,1,177.29,96a20,20,0,0,1-14.42-6.43,21.55,21.55,0,0,1,.5-30,19.46,19.46,0,0,1,15.13-6.13,20,20,0,0,1,14.41,6.56,21.27,21.27,0,0,1-.5,30Zm-15,.71A14,14,0,0,0,188.77,86a15.85,15.85,0,0,0,4.64-11.71,16.13,16.13,0,0,0-4.64-11,14,14,0,0,0-10.56-4.57,14.71,14.71,0,0,0-11.06,4.57,15.3,15.3,0,0,0-4.63,11,15.71,15.71,0,0,0,4.21,11.28A14.44,14.44,0,0,0,177.36,90.62Z"/><path class="cls-17" d="M209.75,95.05h-5.43V40h5.43Z"/><path class="cls-17" d="M238.21,95.05h-5.63l-16.7-40.67h5.71l13.84,33.53L249.2,54.38h6Z"/><path class="cls-17" d="M265.11,49.52h-5.35V40h5.35Zm0,45.53h-5.35V54.38h5.35Z"/><path class="cls-17" d="M307,95.05H301.5V71.29a12.08,12.08,0,0,0-3.78-8.85A11.82,11.82,0,0,0,289,58.73a12.67,12.67,0,0,0-12.56,12.56V95.05H271V71.86a17.94,17.94,0,0,1,5.14-13.13,18.35,18.35,0,0,1,25.76,0A18,18,0,0,1,307,71.86Z"/><path class="cls-17" d="M354.51,93.12a15.7,15.7,0,0,1-6.35,12.77,22,22,0,0,1-27,.36,19,19,0,0,1-6.71-10.2h5.28a13.42,13.42,0,0,0,5.42,7.2,15.05,15.05,0,0,0,9.21,3.07,14.81,14.81,0,0,0,10.34-4.21,12.91,12.91,0,0,0,4.43-9.77V88.48a20.13,20.13,0,0,1-15,7.21,19.66,19.66,0,0,1-15.12-6.07,21.17,21.17,0,0,1-6.35-15.34,20.69,20.69,0,0,1,5.85-14.77,20.42,20.42,0,0,1,29.61-.28,19.91,19.91,0,0,1,6.35,15.12Zm-10.06-7.35a15.88,15.88,0,0,0,4.57-11,15.54,15.54,0,0,0-4.57-11.7A14.07,14.07,0,0,0,333,58.37a14.91,14.91,0,0,0-10.63,5.14,15.65,15.65,0,0,0-4.28,11.2,15.38,15.38,0,0,0,4.71,11.06,14.93,14.93,0,0,0,11,4.57A14,14,0,0,0,344.45,85.77Z"/><path class="cls-17" d="M387,79.56A10.65,10.65,0,0,0,390,87.34a10.38,10.38,0,0,0,7.56,3.36,10.65,10.65,0,0,0,7.92-3.14,10.23,10.23,0,0,0,3.21-7.85c-.14-5.07-3.49-8.64-10.13-10.71l-5.85-1.78c-6.21-1.93-9.78-6.85-9.85-13.42a13,13,0,0,1,4.5-10.27,14.92,14.92,0,0,1,10.77-4.21,15,15,0,0,1,14.7,15h-5.78a8.84,8.84,0,0,0-2.57-6.63,9,9,0,0,0-6.35-3,9.25,9.25,0,0,0-7.06,2.64A8.44,8.44,0,0,0,388.23,54c.08,4.28,2.22,7.06,6.36,8.35l6.63,2.07q12.73,4,12.85,15.41a15.3,15.3,0,0,1-4.79,11.49,16.48,16.48,0,0,1-28.11-11.78Z"/><path class="cls-17" d="M460.23,84.27C456,92.19,449.31,96.05,440.39,96a21.85,21.85,0,0,1-15.27-6.21,20.86,20.86,0,0,1-.21-30,22,22,0,0,1,15.48-6.5,21.76,21.76,0,0,1,12,3.36,19.1,19.1,0,0,1,7.56,8.27l.79,1.79h-6.14c-3.07-5.21-7.71-7.92-14-8.06a15.51,15.51,0,0,0-11.27,4.56,15.07,15.07,0,0,0-5.21,11.49A16.2,16.2,0,0,0,440.46,90.7c6.35-.08,11.06-2.65,14.2-7.64h6.14Z"/><path class="cls-17" d="M505.39,95.05h-5.28V88.7A19.88,19.88,0,0,1,483.84,96a20.11,20.11,0,0,1-14.34-6.5,21.44,21.44,0,0,1,.43-30,19.42,19.42,0,0,1,15.19-6.06,20.36,20.36,0,0,1,14.56,6.56,19.39,19.39,0,0,1,5.71,14.7V95.05ZM469.07,74.28a15.77,15.77,0,0,0,4.21,11.28,14.89,14.89,0,0,0,10.63,5.06A14.19,14.19,0,0,0,495.33,86,16,16,0,0,0,500,74.21a15.88,15.88,0,0,0-4.57-11,14.17,14.17,0,0,0-10.63-4.56,15,15,0,0,0-11.06,4.56A15.31,15.31,0,0,0,469.07,74.28Z"/><path class="cls-17" d="M516.51,95.05h-5.42V40h5.42Z"/><path class="cls-17" d="M563.75,81.7A20.63,20.63,0,0,1,556,92.12,21,21,0,0,1,544,96.05,20.22,20.22,0,0,1,529.21,90a21.28,21.28,0,0,1-.14-30.61,20,20,0,0,1,15.77-6.14A21,21,0,0,1,559,59.94a19.47,19.47,0,0,1,5.78,13.7v2.93H528.21a15,15,0,0,0,5.21,10.13,15.56,15.56,0,0,0,10.78,3.92c6.42-.07,11-3.06,13.77-8.92ZM559.4,71.57a15.89,15.89,0,0,0-5.36-9.2,15.84,15.84,0,0,0-25.83,9.2Z"/></g></svg>