<svg id="Layer_5" enable-background="new 0 0 64 64" height="512" viewBox="0 0 64 64" width="512" xmlns="http://www.w3.org/2000/svg"><g><path d="m29.62 32.638-.575 2.304c.462 1.234 1.631 2.058 2.955 2.058s2.494-.824 2.955-2.056l-.576-2.305c-.751.234-1.551.361-2.379.361s-1.628-.127-2.38-.362z"/><path d="m32 43c-3.661 0-6.913 1.961-8.494 5h2.494c.002 0 .004.001.007.001 1.366-1.86 3.6-3.001 5.993-3.001 2.394 0 4.627 1.141 5.993 3.001.002 0 .005-.001.007-.001h2.494c-1.581-3.039-4.833-5-8.494-5z"/><path d="m40.494 56h-2.494c-.002 0-.004-.001-.007-.001-1.366 1.86-3.6 3.001-5.993 3.001-2.394 0-4.627-1.141-5.993-3.001-.002 0-.005.001-.007.001h-2.494c1.581 3.039 4.833 5 8.494 5s6.913-1.961 8.494-5z"/><path d="m38 25v-4.586l-1.414-1.414h-9.172l-1.414 1.414v4.586c0 3.309 2.691 6 6 6s6-2.691 6-6zm-9-4c.552 0 1 .448 1 1s-.448 1-1 1-1-.448-1-1 .448-1 1-1zm6.789 5.658c-.722 1.445-2.174 2.342-3.789 2.342s-3.067-.897-3.789-2.342l-.105-.211 1.789-.895.105.212c.381.762 1.147 1.236 2 1.236s1.619-.474 2-1.236l.105-.211 1.789.895zm-.789-3.658c-.552 0-1-.448-1-1s.448-1 1-1 1 .448 1 1-.448 1-1 1z"/><path d="m24 25v-4c-1.103 0-2 .897-2 2s.897 2 2 2z"/><path d="m36 52c0 1.103.897 2 2 2h2v-4h-2c-1.103 0-2 .897-2 2z"/><path d="m21.31 56h-1.31v5h5.394c-1.809-1.218-3.245-2.936-4.084-5z"/><path d="m46.32 38.082c-1.094-.729-2.363-1.191-3.671-1.337l-6.009-.668c-.851 1.768-2.637 2.923-4.64 2.923s-3.788-1.154-4.64-2.923l-6.01.668c-1.308.146-2.577.608-3.671 1.337-2.303 1.536-3.679 4.106-3.679 6.875v4.043c0 2.757 2.243 5 5 5h3v-4h-2c-1.103 0-2-.897-2-2v-4h2v4h1.31c1.715-4.214 5.917-7 10.69-7s8.976 2.786 10.69 7h1.31v-5h2v5c0 1.103-.897 2-2 2h-2v4h3c2.757 0 5-2.243 5-5v-4.043c0-2.769-1.376-5.339-3.68-6.875z"/><path d="m28.101 55.389c.999 1.01 2.404 1.611 3.899 1.611s2.9-.601 3.899-1.611c-1.135-.706-1.899-1.956-1.899-3.389s.764-2.683 1.899-3.389c-.999-1.01-2.404-1.611-3.899-1.611s-2.9.601-3.899 1.611c1.135.706 1.899 1.956 1.899 3.389s-.764 2.683-1.899 3.389z"/><path d="m24 19h.586l2-2h10.828l2 2h.586c.892 0 1.708.303 2.374.799.397-.515.626-1.136.626-1.799 0-1.408-.999-2.642-2.376-2.933l-1.046-.222.291-1.029c.089-.316.131-.575.131-.816 0-1.996-1.962-3.587-4.056-2.796l-.855.323-.399-.823c-.507-1.052-1.539-1.704-2.69-1.704s-2.183.652-2.69 1.704l-.398.823-.855-.323c-2.096-.792-4.057.8-4.057 2.796 0 .241.042.5.131.816l.291 1.029-1.046.222c-1.377.291-2.376 1.525-2.376 2.933 0 .663.229 1.284.626 1.799.666-.496 1.482-.799 2.374-.799z"/><path d="m40 25c1.103 0 2-.897 2-2s-.897-2-2-2z"/><path d="m38.606 61h5.394v-5h-1.31c-.839 2.064-2.275 3.782-4.084 5z"/><path d="m24 50v4h2c1.103 0 2-.897 2-2s-.897-2-2-2z"/><path d="m19 31h-4v-4h-2v6h6z"/><path d="m15 3h4v-2h-6v6h2z"/><path d="m49 7h2v-6h-6v2h4z"/><path d="m49 31h-4v2h6v-6h-2z"/><path d="m19.431 16h-9.431v2h9c0-.706.158-1.382.431-2z"/><path d="m44.569 16c.273.618.431 1.294.431 2h9v-2z"/></g></svg>