<svg xmlns="http://www.w3.org/2000/svg" xmlns:xlink="http://www.w3.org/1999/xlink" viewBox="0 0 680 141.75"><defs><style>.cls-1{fill:url(#linear-gradient);}.cls-2{fill:url(#linear-gradient-2);}.cls-3{fill:#0093d4;}.cls-4{fill:#2b3990;}</style><linearGradient id="linear-gradient" x1="68.7" y1="1.66" x2="65.8" y2="108.83" gradientUnits="userSpaceOnUse"><stop offset="0" stop-color="#0093d4"/><stop offset="1" stop-color="#2b3990"/></linearGradient><linearGradient id="linear-gradient-2" x1="70.21" y1="1.7" x2="67.31" y2="108.87" xlink:href="#linear-gradient"/></defs><g id="HQ"><circle class="cls-1" cx="68.27" cy="17.5" r="9.95"/><path class="cls-2" d="M91.33,17.23a4.83,4.83,0,0,0-3.67,8.93,51.06,51.06,0,0,1,21.73,77.59L72.52,35.83a4.84,4.84,0,0,0-8.49,0L27.15,103.75A51,51,0,0,1,48.87,26.16a4.83,4.83,0,1,0-3.67-8.93,60.68,60.68,0,0,0-21,97.94A4.44,4.44,0,0,0,25,116,60.74,60.74,0,1,0,91.33,17.23ZM58.79,119A1.16,1.16,0,1,1,60,117.82,1.17,1.17,0,0,1,58.79,119Zm32.59-11.35a1.16,1.16,0,1,1,1.16-1.16A1.16,1.16,0,0,1,91.38,107.63Zm1.45,10.61v-8a4.05,4.05,0,1,0-2.9,0v9.46a50.5,50.5,0,0,1-6.12,2.41v-6.86a1.49,1.49,0,0,0-.38-1l-8.08-8.71V77.25a4.06,4.06,0,1,0-2.89,0v28.87a1.44,1.44,0,0,0,.38,1l8.08,8.72V123a49,49,0,0,1-5.57,1.1v-4.5a1.43,1.43,0,0,0-.43-1L60.55,104.36a4,4,0,1,0-3.64,2.32,4,4,0,0,0,1.55-.32l14,13.78v4.22c-1.38.12-2.78.19-4.19.19a52,52,0,0,1-8-.65v-2.31a4.06,4.06,0,1,0-2.89,0v1.77a51,51,0,0,1-11.4-4v-10l11.2-20.68a3.55,3.55,0,0,0,.86.1,4.07,4.07,0,1,0-3.29-1.7l-11.5,21.23A1.43,1.43,0,0,0,43,109v8.87a52,52,0,0,1-9-6.53L68.27,48.25l34.25,63.09A51.34,51.34,0,0,1,92.83,118.24ZM75.06,73.47a1.16,1.16,0,1,1-1.15-1.16A1.16,1.16,0,0,1,75.06,73.47Zm-17,29.15a1.15,1.15,0,1,1-1.15-1.16A1.15,1.15,0,0,1,58.06,102.62ZM56.85,84.74A1.15,1.15,0,1,1,58,85.9,1.16,1.16,0,0,1,56.85,84.74Z"/><path class="cls-3" d="M412.64,102.2a1.07,1.07,0,0,1-.45-.37,1,1,0,0,1-.18-.55.93.93,0,0,1,.26-.66.84.84,0,0,1,.66-.28,1,1,0,0,1,.42.09,10.78,10.78,0,0,0,4.41.91c2.61,0,3.92-.85,3.92-2.57a1.45,1.45,0,0,0-.5-1.12,3.6,3.6,0,0,0-1.25-.7c-.49-.17-1.19-.38-2.1-.62a26,26,0,0,1-2.93-.9A5.25,5.25,0,0,1,413,94.12a3.35,3.35,0,0,1-.8-2.33,4.19,4.19,0,0,1,.67-2.32,4.66,4.66,0,0,1,2-1.65A7.18,7.18,0,0,1,418,87.2a12.8,12.8,0,0,1,4.46.74.87.87,0,0,1,.63.89,1,1,0,0,1-.25.65.8.8,0,0,1-.65.29,1,1,0,0,1-.36-.09,11,11,0,0,0-3.6-.6,5.48,5.48,0,0,0-2.88.67,2.1,2.1,0,0,0-1.11,1.88,1.74,1.74,0,0,0,.53,1.31,3.46,3.46,0,0,0,1.32.78,20,20,0,0,0,2.16.6,20.67,20.67,0,0,1,2.85.85,4.54,4.54,0,0,1,1.86,1.32,3.55,3.55,0,0,1,.77,2.42,3.71,3.71,0,0,1-.71,2.24,4.65,4.65,0,0,1-2,1.56,7.54,7.54,0,0,1-3,.56A13.34,13.34,0,0,1,412.64,102.2Z"/><path class="cls-3" d="M428.44,102.53a5,5,0,0,1-2-2.09,7.12,7.12,0,0,1,0-6.2,5,5,0,0,1,2-2.09,6.49,6.49,0,0,1,6,0,5,5,0,0,1,2,2.09,7,7,0,0,1,0,6.2,5,5,0,0,1-2,2.09,6.49,6.49,0,0,1-6,0Zm4.78-1.54a3.46,3.46,0,0,0,1.39-1.35,5.23,5.23,0,0,0,0-4.63,3.34,3.34,0,0,0-1.39-1.33,4,4,0,0,0-3.54,0A3.18,3.18,0,0,0,428.31,95a5.23,5.23,0,0,0,0,4.63,3.29,3.29,0,0,0,1.37,1.35,3.94,3.94,0,0,0,3.54,0Z"/><path class="cls-3" d="M440.32,102.87a1,1,0,0,1-.29-.72V87.62a1,1,0,0,1,.29-.72,1,1,0,0,1,.72-.31,1,1,0,0,1,.74.3,1,1,0,0,1,.29.73v14.53a1,1,0,0,1-.3.72,1,1,0,0,1-.73.29A1,1,0,0,1,440.32,102.87Z"/><path class="cls-3" d="M448.92,102.92a1.34,1.34,0,0,1-.49-.59L444.53,93a1.37,1.37,0,0,1-.11-.47,1,1,0,0,1,.29-.73,1,1,0,0,1,.72-.3,1,1,0,0,1,.55.17,1,1,0,0,1,.37.41l3.42,8.69,3.42-8.69a1,1,0,0,1,.37-.41,1,1,0,0,1,1.27.13,1,1,0,0,1,.29.73A1.37,1.37,0,0,1,455,93l-3.9,9.31a1.34,1.34,0,0,1-.49.59,1.23,1.23,0,0,1-.74.24h-.22A1.23,1.23,0,0,1,448.92,102.92Z"/><path class="cls-3" d="M457.63,89a1.09,1.09,0,0,1-.34-.81v-.09a1.16,1.16,0,0,1,1.14-1.14h.14a1.16,1.16,0,0,1,1.14,1.14v.09a1.14,1.14,0,0,1-1.14,1.14h-.14A1.09,1.09,0,0,1,457.63,89Zm.13,13.9a1,1,0,0,1-.29-.72v-9.6a1,1,0,0,1,.29-.73,1,1,0,0,1,.72-.3,1,1,0,0,1,.73.29,1,1,0,0,1,.3.74v9.6a1,1,0,0,1-.31.72,1,1,0,0,1-.72.29A1,1,0,0,1,457.76,102.87Z"/><path class="cls-3" d="M463.33,102.87a1,1,0,0,1-.29-.72v-9.6a1,1,0,0,1,.29-.73,1,1,0,0,1,.72-.3,1,1,0,0,1,1,1v.92a7.45,7.45,0,0,1,1.83-1.5,4.59,4.59,0,0,1,2.33-.56,3.74,3.74,0,0,1,3.53,2.17,5.07,5.07,0,0,1,.48,2.21v6.36a1,1,0,0,1-.3.72,1,1,0,0,1-.73.29,1,1,0,0,1-1-1V96q0-2.73-2.46-2.73a3.53,3.53,0,0,0-2,.58,7.19,7.19,0,0,0-1.67,1.57v6.71a1,1,0,0,1-.3.72,1,1,0,0,1-.73.29A1,1,0,0,1,463.33,102.87Z"/><path class="cls-3" d="M479.38,108.08a8.41,8.41,0,0,1-2.17-.83.83.83,0,0,1-.4-.78.89.89,0,0,1,.26-.64.84.84,0,0,1,.63-.28,1.13,1.13,0,0,1,.41.09,8.07,8.07,0,0,0,3.69.85c2.28,0,3.42-1.21,3.42-3.65v-1.5a5,5,0,0,1-3.82,1.71,5.43,5.43,0,0,1-2.57-.66,5.34,5.34,0,0,1-2-2,6.69,6.69,0,0,1,0-6.38,5.27,5.27,0,0,1,2-2,5.43,5.43,0,0,1,2.57-.66,5,5,0,0,1,3.82,1.7v-.56a1,1,0,0,1,.3-.73.94.94,0,0,1,.71-.3,1,1,0,0,1,1,1v10a6.32,6.32,0,0,1-1.36,4.35,5,5,0,0,1-3.9,1.52A10.36,10.36,0,0,1,479.38,108.08Zm4.3-7.34a6.55,6.55,0,0,0,1.54-1.21V94.92a6.55,6.55,0,0,0-1.54-1.21,4.19,4.19,0,0,0-4.6.57,4.62,4.62,0,0,0,0,5.89,4.14,4.14,0,0,0,4.6.57Z"/><path class="cls-3" d="M496.91,108a1,1,0,0,1-.29-.72V92.53a.94.94,0,0,1,.29-.72,1,1,0,0,1,.71-.29,1,1,0,0,1,.73.29,1,1,0,0,1,.3.72v.58a5.13,5.13,0,0,1,3.83-1.7,5.23,5.23,0,0,1,2.63.7,5.41,5.41,0,0,1,2,2.06,6.91,6.91,0,0,1,0,6.34,5.41,5.41,0,0,1-2,2.06,5.23,5.23,0,0,1-2.63.7,5.17,5.17,0,0,1-3.83-1.7v5.71a1,1,0,0,1-.29.74,1,1,0,0,1-.74.29A.92.92,0,0,1,496.91,108Zm7.94-7.68a4.9,4.9,0,0,0,0-6,3.52,3.52,0,0,0-2.66-1,4.2,4.2,0,0,0-1.94.46,5.54,5.54,0,0,0-1.6,1.22v4.7a5.72,5.72,0,0,0,1.6,1.22,4.2,4.2,0,0,0,1.94.46A3.52,3.52,0,0,0,504.85,100.32Z"/><path class="cls-3" d="M511,102.87a1,1,0,0,1-.29-.72v-9.6a1,1,0,0,1,.29-.73,1,1,0,0,1,.72-.3,1,1,0,0,1,.73.3,1,1,0,0,1,.3.73v1a4.4,4.4,0,0,1,3.51-2.1h.11a.92.92,0,0,1,.71.29,1,1,0,0,1,.28.71.92.92,0,0,1-.29.7,1.05,1.05,0,0,1-.74.27h-.11a3.79,3.79,0,0,0-2,.52,4.51,4.51,0,0,0-1.5,1.45v6.8a1,1,0,0,1-.3.72,1.05,1.05,0,0,1-.73.29A1,1,0,0,1,511,102.87Z"/><path class="cls-3" d="M521,102.53a5,5,0,0,1-2-2.09,7.12,7.12,0,0,1,0-6.2,5,5,0,0,1,2-2.09,5.93,5.93,0,0,1,3-.74,5.86,5.86,0,0,1,3,.74,5.09,5.09,0,0,1,2,2.09,7.12,7.12,0,0,1,0,6.2,5.09,5.09,0,0,1-2,2.09,6,6,0,0,1-3,.74A6,6,0,0,1,521,102.53Zm4.78-1.54a3.46,3.46,0,0,0,1.39-1.35,5.15,5.15,0,0,0,0-4.63,3.34,3.34,0,0,0-1.39-1.33,3.89,3.89,0,0,0-1.76-.41,3.94,3.94,0,0,0-1.78.41A3.24,3.24,0,0,0,520.86,95a5.23,5.23,0,0,0,0,4.63,3.35,3.35,0,0,0,1.37,1.35,4,4,0,0,0,1.78.42A3.9,3.9,0,0,0,525.77,101Z"/><path class="cls-3" d="M534.62,101.57v.58a1,1,0,0,1-.3.72,1,1,0,0,1-.73.29,1,1,0,0,1-1-1V87.62a1,1,0,0,1,.29-.72,1,1,0,0,1,.71-.31,1,1,0,0,1,.74.3,1,1,0,0,1,.29.73v5.49a5.13,5.13,0,0,1,3.83-1.7,5.23,5.23,0,0,1,2.63.7,5.31,5.31,0,0,1,2,2.06,6.83,6.83,0,0,1,0,6.34,5.31,5.31,0,0,1-2,2.06,5.23,5.23,0,0,1-2.63.7A5.17,5.17,0,0,1,534.62,101.57Zm6.2-1.25a4.9,4.9,0,0,0,0-6,3.52,3.52,0,0,0-2.66-1,4.2,4.2,0,0,0-1.94.46,5.54,5.54,0,0,0-1.6,1.22v4.7a5.72,5.72,0,0,0,1.6,1.22,4.2,4.2,0,0,0,1.94.46A3.52,3.52,0,0,0,540.82,100.32Z"/><path class="cls-3" d="M547,102.87a1,1,0,0,1-.29-.72V87.62a1,1,0,0,1,.29-.72,1,1,0,0,1,.72-.31,1,1,0,0,1,1,1v14.53a1,1,0,0,1-.31.72,1,1,0,0,1-.72.29A1,1,0,0,1,547,102.87Z"/><path class="cls-3" d="M553.12,101.71a6,6,0,0,1-1.53-4.37,7.23,7.23,0,0,1,.58-2.93A5,5,0,0,1,554,92.24a5.73,5.73,0,0,1,5.84-.06,5,5,0,0,1,1.84,2.06,6.3,6.3,0,0,1,.63,2.81,1,1,0,0,1-.28.71,1,1,0,0,1-.75.29h-7.59a3.69,3.69,0,0,0,1.16,2.44,4,4,0,0,0,2.76.88,6.69,6.69,0,0,0,1.64-.18,6.61,6.61,0,0,0,1.38-.52.87.87,0,0,1,.4-.09.93.93,0,0,1,.63.25.82.82,0,0,1,.27.63,1,1,0,0,1-.59.83,8.14,8.14,0,0,1-1.72.73,7.85,7.85,0,0,1-2.19.25A5.72,5.72,0,0,1,553.12,101.71Zm7.13-5.31a3.55,3.55,0,0,0-.57-1.84,3.11,3.11,0,0,0-1.24-1.08,3.39,3.39,0,0,0-3,0,3,3,0,0,0-1.23,1.08,3.64,3.64,0,0,0-.56,1.84Z"/><path class="cls-3" d="M565.24,102.87a1,1,0,0,1-.29-.72v-9.6a1,1,0,0,1,.29-.73,1,1,0,0,1,.72-.3,1,1,0,0,1,.73.3,1,1,0,0,1,.3.73v.92A5.59,5.59,0,0,1,568.5,92a4.07,4.07,0,0,1,2.29-.58,3.44,3.44,0,0,1,2.15.67,3.79,3.79,0,0,1,1.28,1.63,4.51,4.51,0,0,1,4.12-2.3,3.45,3.45,0,0,1,2.09.62,3.76,3.76,0,0,1,1.24,1.62,5.31,5.31,0,0,1,.4,2v6.45a1,1,0,0,1-.3.72,1,1,0,0,1-.73.29,1,1,0,0,1-1-1v-6a3.53,3.53,0,0,0-.52-2.14,2.06,2.06,0,0,0-1.77-.68,3,3,0,0,0-1.89.59,5.73,5.73,0,0,0-1.33,1.56v6.71a1,1,0,0,1-.3.72,1,1,0,0,1-.73.29,1,1,0,0,1-1-1v-6A3.61,3.61,0,0,0,572,94a2.06,2.06,0,0,0-1.77-.68,3,3,0,0,0-1.89.59A5.73,5.73,0,0,0,567,95.44v6.71a1,1,0,0,1-.3.72,1.05,1.05,0,0,1-.73.29A1,1,0,0,1,565.24,102.87Z"/><path class="cls-3" d="M585.12,102.26a.84.84,0,0,1-.38-.74.91.91,0,0,1,.24-.62.83.83,0,0,1,.63-.27,1,1,0,0,1,.4.09,9.07,9.07,0,0,0,1.44.49,6.55,6.55,0,0,0,1.61.18c1.65,0,2.48-.53,2.48-1.59A.85.85,0,0,0,591,99a12,12,0,0,0-1.87-.61,15.88,15.88,0,0,1-2.18-.65,3.8,3.8,0,0,1-1.48-1,2.61,2.61,0,0,1-.61-1.81A3.21,3.21,0,0,1,586,92.39a4.8,4.8,0,0,1,3.23-1,9.21,9.21,0,0,1,3.25.56.84.84,0,0,1,.48.33,1,1,0,0,1,.17.52.9.9,0,0,1-.9.89,1.23,1.23,0,0,1-.29,0,8.57,8.57,0,0,0-2.55-.4,3.48,3.48,0,0,0-1.89.43,1.3,1.3,0,0,0-.69,1.13,1,1,0,0,0,.63,1,8.79,8.79,0,0,0,2,.6,19.12,19.12,0,0,1,2.15.66,3.66,3.66,0,0,1,1.42,1,2.78,2.78,0,0,1,.59,1.86,3,3,0,0,1-1.13,2.37,4.84,4.84,0,0,1-3.19.94A8.33,8.33,0,0,1,585.12,102.26Z"/><path class="cls-3" d="M604.66,102.89a1.35,1.35,0,0,1-.49-.67L601,92.91a1.1,1.1,0,0,1-.07-.38,1,1,0,0,1,.29-.72,1,1,0,0,1,.72-.29,1,1,0,0,1,.57.17.82.82,0,0,1,.35.43l2.61,8.62,2.6-8.42a1.19,1.19,0,0,1,.41-.58,1.14,1.14,0,0,1,.69-.22,1.11,1.11,0,0,1,.68.22,1.13,1.13,0,0,1,.41.58l2.6,8.42,2.62-8.62a.77.77,0,0,1,.35-.43,1,1,0,0,1,.57-.17,1,1,0,0,1,.71.29.94.94,0,0,1,.29.72,1.36,1.36,0,0,1-.06.38l-3.18,9.31a1.41,1.41,0,0,1-.49.67,1.35,1.35,0,0,1-1.62,0,1.53,1.53,0,0,1-.51-.69l-2.37-7.41-2.37,7.41a1.55,1.55,0,0,1-.52.69,1.34,1.34,0,0,1-1.61,0Z"/><path class="cls-3" d="M620,89a1.09,1.09,0,0,1-.34-.81v-.09a1.16,1.16,0,0,1,1.14-1.14h.14A1.16,1.16,0,0,1,622,88.07v.09a1.14,1.14,0,0,1-1.14,1.14h-.14A1.09,1.09,0,0,1,620,89Zm.13,13.9a1,1,0,0,1-.29-.72v-9.6a1,1,0,0,1,.29-.73,1,1,0,0,1,.72-.3,1,1,0,0,1,.74.29,1,1,0,0,1,.29.74v9.6a1,1,0,0,1-.31.72,1,1,0,0,1-.72.29A1,1,0,0,1,620.08,102.87Z"/><path class="cls-3" d="M626,100.32V93.38h-1.59a.38.38,0,0,1-.3-.13A.41.41,0,0,1,624,93a.48.48,0,0,1,.2-.38l3-3a.61.61,0,0,1,.39-.2.41.41,0,0,1,.3.14.45.45,0,0,1,.12.31v1.79h2.53a.84.84,0,0,1,.87.87.88.88,0,0,1-.24.62.86.86,0,0,1-.63.26h-2.53v6.76c0,.58.14,1,.41,1.1a2.08,2.08,0,0,0,1,.24,3.13,3.13,0,0,0,.9-.14l.19,0,.26,0a.82.82,0,0,1,.56.23.78.78,0,0,1,.24.57.85.85,0,0,1-.51.79,4.35,4.35,0,0,1-1.86.4Q626,103.27,626,100.32Z"/><path class="cls-3" d="M634.2,102.87a1,1,0,0,1-.29-.72V87.62a1,1,0,0,1,.29-.72,1,1,0,0,1,.72-.31,1,1,0,0,1,.73.31,1,1,0,0,1,.3.72v5.85a7.45,7.45,0,0,1,1.83-1.5,4.59,4.59,0,0,1,2.33-.56,3.74,3.74,0,0,1,3.53,2.17,5.07,5.07,0,0,1,.48,2.21v6.36a1,1,0,0,1-.3.72,1,1,0,0,1-.73.29,1,1,0,0,1-1-1V96q0-2.73-2.46-2.73a3.53,3.53,0,0,0-2,.58A7.19,7.19,0,0,0,636,95.44v6.71a1,1,0,0,1-.3.72,1,1,0,0,1-.73.29A1,1,0,0,1,634.2,102.87Z"/><path class="cls-3" d="M653,102.87a1,1,0,0,1-.28-.72,1.16,1.16,0,0,1,.12-.45l5.7-13.47a1.68,1.68,0,0,1,.51-.66,1.23,1.23,0,0,1,.79-.26h.23a1.25,1.25,0,0,1,.79.26,1.66,1.66,0,0,1,.5.66l5.71,13.47a1.12,1.12,0,0,1,.11.45,1,1,0,0,1-.28.72,1,1,0,0,1-.72.29,1,1,0,0,1-.57-.17,1,1,0,0,1-.4-.46L663.75,99h-7.61l-1.46,3.49a1.05,1.05,0,0,1-1,.63A1,1,0,0,1,653,102.87Zm3.93-5.69H663l-3-7.27Z"/><path class="cls-3" d="M670.75,102.87a1,1,0,0,1-.29-.72V88.34a1.05,1.05,0,0,1,.29-.73,1,1,0,0,1,.72-.3,1,1,0,0,1,.73.3,1,1,0,0,1,.3.73v13.81a1,1,0,0,1-.3.72,1,1,0,0,1-.73.29A1,1,0,0,1,670.75,102.87Z"/><path class="cls-4" d="M188.48,66.15a13.52,13.52,0,0,1-.57,4.07,12.08,12.08,0,0,1-1.52,3.19,9.88,9.88,0,0,1-2.2,2.35,13.29,13.29,0,0,1-2.62,1.59,12.85,12.85,0,0,1-2.75.91,12.56,12.56,0,0,1-2.63.3H146.7V70.91h29.49a4.51,4.51,0,0,0,3.43-1.29,4.88,4.88,0,0,0,1.22-3.47,5.45,5.45,0,0,0-.33-1.94,4.38,4.38,0,0,0-.92-1.53,4.17,4.17,0,0,0-1.47-1,5,5,0,0,0-1.93-.36H158.61a13.63,13.63,0,0,1-4-.66,12.06,12.06,0,0,1-4-2.13,11.6,11.6,0,0,1-3.05-3.85,12.58,12.58,0,0,1-1.22-5.82,12.48,12.48,0,0,1,1.22-5.81,11.81,11.81,0,0,1,3.05-3.85,11.93,11.93,0,0,1,4-2.15,13.63,13.63,0,0,1,4-.66h26V44h-26a4.4,4.4,0,0,0-3.4,1.32,5,5,0,0,0-1.22,3.5,4.84,4.84,0,0,0,1.22,3.48,4.49,4.49,0,0,0,3.4,1.28h17.64a13.27,13.27,0,0,1,2.62.34,13,13,0,0,1,2.75.95,13.81,13.81,0,0,1,2.6,1.64,11,11,0,0,1,2.19,2.36,11.41,11.41,0,0,1,1.51,3.18A13.37,13.37,0,0,1,188.48,66.15Z"/><path class="cls-4" d="M228.56,67.82a11.8,11.8,0,0,1-.5,3.55,10.4,10.4,0,0,1-1.33,2.76,8.8,8.8,0,0,1-1.91,2,11.34,11.34,0,0,1-2.27,1.37,12.18,12.18,0,0,1-2.42.78,12,12,0,0,1-2.3.25H204a12.32,12.32,0,0,1-3.47-.56,10.38,10.38,0,0,1-3.49-1.84,10.19,10.19,0,0,1-2.67-3.32,10.67,10.67,0,0,1-1.08-5V57.47a10.53,10.53,0,0,1,1.08-5,10.19,10.19,0,0,1,2.67-3.32,10,10,0,0,1,3.49-1.84,12.32,12.32,0,0,1,3.47-.56h13.79a10.8,10.8,0,0,1,5,1.06,9.93,9.93,0,0,1,3.32,2.66A10.81,10.81,0,0,1,228,54a12.2,12.2,0,0,1,.57,3.5Zm-7.65-10.29a3.12,3.12,0,0,0-.79-2.35,3.17,3.17,0,0,0-2.29-.77H204.09a3.19,3.19,0,0,0-2.32.78,3.05,3.05,0,0,0-.79,2.28V67.82a3.12,3.12,0,0,0,.79,2.3,3.15,3.15,0,0,0,2.32.79h13.74a3.08,3.08,0,0,0,2.32-.79,3.19,3.19,0,0,0,.76-2.3Z"/><path class="cls-4" d="M249,78.56h-3.41A12.36,12.36,0,0,1,242.1,78a10.43,10.43,0,0,1-3.48-1.84,10.08,10.08,0,0,1-2.68-3.32,10.8,10.8,0,0,1-1.06-5V33.33h7.65V67.82a3,3,0,0,0,.88,2.25,3.07,3.07,0,0,0,2.2.84H249Z"/><path class="cls-4" d="M291.87,46.77a83,83,0,0,1-3,7.94,57.07,57.07,0,0,1-4,7.45,45.77,45.77,0,0,1-5,6.56,32.25,32.25,0,0,1-6.14,5.2,29.93,29.93,0,0,1-7.32,3.44,28.14,28.14,0,0,1-8.57,1.25,3.78,3.78,0,0,1-1.5-.29,4.16,4.16,0,0,1-1.24-.81,3.56,3.56,0,0,1-.82-1.2,3.71,3.71,0,0,1-.3-1.49v-28h7.65V70.68A12.6,12.6,0,0,0,267,69.47a21.21,21.21,0,0,0,4.86-3.19,31,31,0,0,0,4.25-4.51,47.12,47.12,0,0,0,3.49-5.19,50.64,50.64,0,0,0,2.6-5.22,35.43,35.43,0,0,0,1.6-4.59Z"/><path class="cls-4" d="M302.36,40.24h-7.64V33.33h7.64Zm0,38.32h-7.64V46.77h7.64Z"/><path class="cls-4" d="M344.91,78.56h-7.64V60.91a6.79,6.79,0,0,0-.52-2.69,6.36,6.36,0,0,0-1.39-2,6,6,0,0,0-2.08-1.31,7.2,7.2,0,0,0-2.57-.46H317.33V78.56h-7.64v-28a3.65,3.65,0,0,1,.29-1.48,3.7,3.7,0,0,1,.82-1.21,4.16,4.16,0,0,1,1.24-.81,4,4,0,0,1,1.5-.29h17.23a15.8,15.8,0,0,1,3,.32,14.81,14.81,0,0,1,3.18,1A15.31,15.31,0,0,1,340,50a12.23,12.23,0,0,1,2.53,2.68,13.14,13.14,0,0,1,1.74,3.63,15.48,15.48,0,0,1,.65,4.64Z"/><path class="cls-4" d="M386.19,87.9a11.47,11.47,0,0,1-.5,3.54,10.3,10.3,0,0,1-1.32,2.77,9,9,0,0,1-1.91,2,11.22,11.22,0,0,1-2.28,1.37,12.09,12.09,0,0,1-2.41.78,11.31,11.31,0,0,1-2.31.25H146.35V91H375.46a3.08,3.08,0,0,0,2.32-.8,3.17,3.17,0,0,0,.77-2.29V57.47a2.73,2.73,0,0,0-3.09-3.06H361.67a2.94,2.94,0,0,0-2.24.87,3.1,3.1,0,0,0-.82,2.19V67.82a2.79,2.79,0,0,0,3.12,3.09h13.73v7.65H361.67a11.7,11.7,0,0,1-2.29-.25,12,12,0,0,1-2.4-.78,11.69,11.69,0,0,1-2.28-1.37,9.25,9.25,0,0,1-1.91-2,10.09,10.09,0,0,1-1.32-2.76,11.49,11.49,0,0,1-.5-3.55V57.47a11.05,11.05,0,0,1,.25-2.29,11.6,11.6,0,0,1,2.14-4.68,9.25,9.25,0,0,1,2-1.91,10.31,10.31,0,0,1,2.75-1.32,11.66,11.66,0,0,1,3.53-.5h13.79a11.31,11.31,0,0,1,2.31.25,12.09,12.09,0,0,1,2.41.78,11.22,11.22,0,0,1,2.28,1.37,9,9,0,0,1,1.91,2,10.31,10.31,0,0,1,1.32,2.75,11.36,11.36,0,0,1,.5,3.53Z"/><path class="cls-4" d="M454.15,66.15a13.51,13.51,0,0,1-.58,4.07,12.06,12.06,0,0,1-1.51,3.19,9.92,9.92,0,0,1-2.21,2.35,13.22,13.22,0,0,1-2.61,1.59,13,13,0,0,1-2.75.91,12.58,12.58,0,0,1-2.64.3H412.36V70.91h29.49a4.49,4.49,0,0,0,3.43-1.29,4.88,4.88,0,0,0,1.22-3.47,5.68,5.68,0,0,0-.32-1.94,4.55,4.55,0,0,0-.93-1.53,4,4,0,0,0-1.47-1,5,5,0,0,0-1.93-.36H424.27a13.68,13.68,0,0,1-4-.66,11.92,11.92,0,0,1-4-2.13,11.5,11.5,0,0,1-3.06-3.85A12.71,12.71,0,0,1,412,48.86a12.61,12.61,0,0,1,1.22-5.81,11.77,11.77,0,0,1,7-6,13.68,13.68,0,0,1,4-.66h26V44h-26a4.38,4.38,0,0,0-3.39,1.32,4.93,4.93,0,0,0-1.22,3.5,4.8,4.8,0,0,0,1.22,3.48,4.46,4.46,0,0,0,3.39,1.28h17.64a13.18,13.18,0,0,1,2.62.34,12.83,12.83,0,0,1,2.75.95,13.5,13.5,0,0,1,2.6,1.64,10.52,10.52,0,0,1,2.19,2.36,11.71,11.71,0,0,1,1.52,3.18A13.69,13.69,0,0,1,454.15,66.15Z"/><path class="cls-4" d="M490.43,78.56H469.7a12.38,12.38,0,0,1-3.47-.56,10.19,10.19,0,0,1-6.16-5.16,10.8,10.8,0,0,1-1.07-5V57.47a11.05,11.05,0,0,1,.25-2.29,11.78,11.78,0,0,1,.78-2.4,11.64,11.64,0,0,1,1.36-2.28,9.25,9.25,0,0,1,2-1.91,10.31,10.31,0,0,1,2.75-1.32,11.66,11.66,0,0,1,3.53-.5h20.73v7.64H469.7a2.74,2.74,0,0,0-3.06,3.12V67.82a2.79,2.79,0,0,0,3.12,3.09h20.67Z"/><path class="cls-4" d="M529.36,68a11.84,11.84,0,0,1-.56,3.42A10,10,0,0,1,527,74.86a10.12,10.12,0,0,1-3.26,2.64,10.45,10.45,0,0,1-4.89,1.06H505a11.89,11.89,0,0,1-3.42-.56,10.4,10.4,0,0,1-3.41-1.81,9.91,9.91,0,0,1-2.63-3.27A10.33,10.33,0,0,1,494.52,68a11.68,11.68,0,0,1,.56-3.44,9.91,9.91,0,0,1,5.07-6.06A10.45,10.45,0,0,1,505,57.47h13.8v7.3H505a3,3,0,0,0-2.41,1,3.43,3.43,0,0,0-.85,2.37,2.87,2.87,0,0,0,1,2.33,3.46,3.46,0,0,0,2.33.84h13.74a3.09,3.09,0,0,0,2.41-.94A3.39,3.39,0,0,0,522.1,68V57.3a3.15,3.15,0,0,0-.93-2.39,3.26,3.26,0,0,0-2.33-.88H502V46.77h16.8a11.94,11.94,0,0,1,3.42.56,10.13,10.13,0,0,1,3.41,1.81,10,10,0,0,1,2.63,3.26,10.37,10.37,0,0,1,1.06,4.9Z"/><path class="cls-4" d="M549.86,78.56h-3.41a12.43,12.43,0,0,1-3.52-.56,10.63,10.63,0,0,1-3.48-1.84,10.08,10.08,0,0,1-2.68-3.32,10.93,10.93,0,0,1-1.06-5V33.33h7.65V67.82a3,3,0,0,0,.88,2.25,3.07,3.07,0,0,0,2.21.84h3.41Z"/><path class="cls-4" d="M589,57.3a11.86,11.86,0,0,1-.55,3.42,10.4,10.4,0,0,1-1.81,3.41,10,10,0,0,1-3.27,2.63,10.33,10.33,0,0,1-4.89,1.06H564.65V60.56h13.79a3.05,3.05,0,0,0,2.41-1,3.39,3.39,0,0,0,.85-2.36,3,3,0,0,0-1-2.35,3.36,3.36,0,0,0-2.31-.86H564.65a3,3,0,0,0-2.41,1,3.4,3.4,0,0,0-.86,2.37V68a3,3,0,0,0,1,2.38,3.41,3.41,0,0,0,2.37.85h13.73v7.3H564.65a12,12,0,0,1-3.43-.56,10.5,10.5,0,0,1-3.41-1.81,9.91,9.91,0,0,1-2.63-3.27A10.33,10.33,0,0,1,554.12,68V57.3a12,12,0,0,1,.56-3.43,10.13,10.13,0,0,1,1.81-3.41,10,10,0,0,1,3.26-2.63,10.35,10.35,0,0,1,4.9-1.06h13.79a11.89,11.89,0,0,1,3.42.56,10,10,0,0,1,3.41,1.81,10.12,10.12,0,0,1,2.64,3.26A10.5,10.5,0,0,1,589,57.3Z"/><path class="cls-4" d="M655.92,78.56h-7.65V68.21H621.4V78.56h-7.65V57.47a22.22,22.22,0,0,1,1.59-8.5,19.91,19.91,0,0,1,4.41-6.67A20.17,20.17,0,0,1,626.42,38a22.2,22.2,0,0,1,8.41-1.56h17.23a4,4,0,0,1,1.5.29,3.75,3.75,0,0,1,1.24.83,3.69,3.69,0,0,1,.82,1.23,3.79,3.79,0,0,1,.3,1.5Zm-34.52-18h26.87V44H634.83c-.23,0-.73,0-1.48.1a15.53,15.53,0,0,0-2.62.51,16.73,16.73,0,0,0-3.13,1.27,11,11,0,0,0-3,2.35A12.12,12.12,0,0,0,622.29,52a14.71,14.71,0,0,0-.89,5.45Z"/><path class="cls-4" d="M672.5,78.56h-7.65V36.39h7.65Z"/></g></svg>